<?xml version="1.0" encoding="UTF-8"?>
<svg xmlns="http://www.w3.org/2000/svg" xmlns:xlink="http://www.w3.org/1999/xlink" viewBox="0 0 1353.05 597.63">
  <defs>
    <style>.cls-1,.cls-6{fill:none;}.cls-2{fill:#252554;}.cls-11,.cls-3,.cls-8{fill:#ffefbd;}.cls-11,.cls-3{stroke:#252554;}.cls-11,.cls-3,.cls-6{stroke-miterlimit:10;}.cls-3,.cls-6{stroke-width:2px;}.cls-4{fill:#252354;}.cls-5{clip-path:url(#clip-path);}.cls-6{stroke:#393768;}.cls-7{fill:#393768;}.cls-9{fill:#1d1a55;}.cls-10{fill:#fac79f;}.cls-11{stroke-width:0.25px;}</style>
    <clipPath id="clip-path" transform="translate(0.21)">
      <rect class="cls-1" x="1" y="0.97" width="1347.74" height="520.93"></rect>
    </clipPath>
  </defs>
  <g id="Слой_2" data-name="Слой 2">
    <g id="Menu">
      <path class="cls-2" d="M311.05,346.29q15.38-1.12,30.82-.94c3.22,0,3.22-5,0-5q-15.42-.19-30.82.94a2.56,2.56,0,0,0-2.5,2.5,2.52,2.52,0,0,0,2.5,2.5Z" transform="translate(0.21)"></path>
      <rect class="cls-3" x="1.21" y="1" width="1347.59" height="520.87"></rect>
      <path class="cls-4" d="M200.53,112.91a18.62,18.62,0,0,1-8.09-6.14A16.72,16.72,0,0,1,189.25,97h15.09a7.32,7.32,0,0,0,2.24,4.93,7.17,7.17,0,0,0,5,1.7,7.74,7.74,0,0,0,5-1.45,5.23,5.23,0,0,0,.38-7.59,11.78,11.78,0,0,0-3.57-2.32,56,56,0,0,0-6-2.07,65.58,65.58,0,0,1-9.21-3.49A17,17,0,0,1,192,81.56a14.34,14.34,0,0,1-2.57-8.87q0-8.13,5.89-12.74t15.34-4.6q9.63,0,15.51,4.6t6.31,12.82H217.11A6,6,0,0,0,215,68.33a7.29,7.29,0,0,0-4.89-1.62A6.11,6.11,0,0,0,206,68.08,5,5,0,0,0,204.42,72a4.89,4.89,0,0,0,2.66,4.4,43.74,43.74,0,0,0,8.29,3.4,76.71,76.71,0,0,1,9.17,3.65,17.4,17.4,0,0,1,6.09,5.06,13.51,13.51,0,0,1,2.58,8.54,16.81,16.81,0,0,1-2.53,9,17.75,17.75,0,0,1-7.34,6.47A25.08,25.08,0,0,1,212,115,29.76,29.76,0,0,1,200.53,112.91Z" transform="translate(0.21)"></path>
      <path class="cls-4" d="M264.14,56.18V91q0,5.22,2.57,8c1.72,1.88,4.23,2.82,7.55,2.82s5.86-.94,7.63-2.82,2.66-4.56,2.66-8V56.18h14.18V90.93a24.72,24.72,0,0,1-3.32,13.19,21.2,21.2,0,0,1-8.92,8.13A28.08,28.08,0,0,1,274,115a27.34,27.34,0,0,1-12.32-2.7,20.12,20.12,0,0,1-8.58-8.13A26,26,0,0,1,250,90.93V56.18Z" transform="translate(0.21)"></path>
      <path class="cls-4" d="M382.91,56.18v58.23H368.73V79.49l-13,34.92H344.26l-13.1-35v35H317V56.18h16.76l16.34,40.31,16.17-40.31Z" transform="translate(0.21)"></path>
      <path class="cls-4" d="M467.35,56.18v58.23H453.17V79.49l-13,34.92H428.7l-13.11-35v35H401.41V56.18h16.75L434.5,96.49l16.18-40.31Z" transform="translate(0.21)"></path>
      <path class="cls-4" d="M500,67.54V79.32h19v11H500V103h21.48v11.37H485.85V56.18h35.66V67.54Z" transform="translate(0.21)"></path>
      <path class="cls-4" d="M568.7,114.41l-12.11-22h-3.4v22H539V56.18h23.8a26.12,26.12,0,0,1,11.74,2.41,16.57,16.57,0,0,1,7.26,6.59,18.42,18.42,0,0,1,2.4,9.33,17.36,17.36,0,0,1-3.27,10.37,17.66,17.66,0,0,1-9.67,6.47l13.44,23.06Zm-15.51-32H562q3.9,0,5.85-1.91a7.2,7.2,0,0,0,1.95-5.39,7,7,0,0,0-1.95-5.22C566.53,68.59,564.58,68,562,68h-8.79Z" transform="translate(0.21)"></path>
      <path class="cls-4" d="M641.44,56.18v58.23H627.26V56.18Z" transform="translate(0.21)"></path>
      <path class="cls-4" d="M712.11,114.41H697.93L674.2,78.49v35.92H660V56.18H674.2l23.73,36.08V56.18h14.18Z" transform="translate(0.21)"></path>
      <path class="cls-4" d="M798.45,56.18V67.54H783v46.87H768.84V67.54H753.41V56.18Z" transform="translate(0.21)"></path>
      <path class="cls-4" d="M864.31,56.18v58.23H850.12v-24H828.06v24H813.88V56.18h14.18V79h22.06V56.18Z" transform="translate(0.21)"></path>
      <path class="cls-4" d="M897,67.54V79.32h19v11H897V103h21.49v11.37H882.8V56.18h35.67V67.54Z" transform="translate(0.21)"></path>
      <path class="cls-4" d="M963.17,69.82a26.76,26.76,0,0,1,10.41-10.53,30.29,30.29,0,0,1,15.14-3.77A29,29,0,0,1,1006.47,61a26.32,26.32,0,0,1,9.87,14.93h-15.6a12.64,12.64,0,0,0-4.93-5.56,13.9,13.9,0,0,0-7.26-1.9A13.55,13.55,0,0,0,977.93,73q-4.06,4.56-4.06,12.19t4.06,12.19A13.55,13.55,0,0,0,988.55,102a13.9,13.9,0,0,0,7.26-1.9,12.58,12.58,0,0,0,4.93-5.56h15.6a26.12,26.12,0,0,1-9.87,14.89,29.15,29.15,0,0,1-17.75,5.43,30.29,30.29,0,0,1-15.14-3.77,26.81,26.81,0,0,1-10.41-10.5,31,31,0,0,1-3.73-15.34A31.3,31.3,0,0,1,963.17,69.82Z" transform="translate(0.21)"></path>
      <path class="cls-4" d="M1047.52,56.18v58.23h-14.18V56.18Z" transform="translate(0.21)"></path>
      <path class="cls-4" d="M1108,56.18V67.54h-15.43v46.87h-14.18V67.54H1063V56.18Z" transform="translate(0.21)"></path>
      <path class="cls-4" d="M1173.34,56.18l-20.15,39v19.25H1139V95.16l-20.16-39h16.09l11.28,24.39,11.2-24.39Z" transform="translate(0.21)"></path>
      <g class="cls-5">
        <path class="cls-4" d="M199.42,475.46,201,431.35l3.57-49.28-28.41-1-.69,19.4.52,21.69L173.13,502l-1.88,13.11,28.52,1ZM197.75,514l-24.21-.87,1.57-11L178,422.15l-.51-21.69.62-17.34,24.34.87L199,431.24l-1.59,44.19Z" transform="translate(0.21)"></path>
        <path class="cls-4" d="M184.41,357a78.76,78.76,0,0,0,15.58.29c1.59-.13,1.6-2.63,0-2.5a78.76,78.76,0,0,1-15.58-.29,1.26,1.26,0,0,0-1.25,1.25A1.28,1.28,0,0,0,184.41,357Z" transform="translate(0.21)"></path>
        <path class="cls-4" d="M197.47,368.25A22.34,22.34,0,0,1,185,369.56a1.28,1.28,0,0,0-1.54.87,1.26,1.26,0,0,0,.87,1.54,24.72,24.72,0,0,0,13.77-1.31,1.27,1.27,0,0,0,.87-1.53A1.25,1.25,0,0,0,197.47,368.25Z" transform="translate(0.21)"></path>
        <path class="cls-4" d="M195,391.13a24.44,24.44,0,0,1-9.26.09,1.28,1.28,0,0,0-1.53.88,1.26,1.26,0,0,0,.87,1.54,28,28,0,0,0,10.59-.1,1.26,1.26,0,0,0,.87-1.54A1.28,1.28,0,0,0,195,391.13Z" transform="translate(0.21)"></path>
        <path class="cls-4" d="M192.31,421a24.44,24.44,0,0,1-9.26.09,1.28,1.28,0,0,0-1.53.88,1.25,1.25,0,0,0,.87,1.53,27.74,27.74,0,0,0,10.59-.09,1.25,1.25,0,1,0-.67-2.41Z" transform="translate(0.21)"></path>
        <path class="cls-4" d="M192.89,406.42l-8.2.2a1.28,1.28,0,0,0-1.25,1.25,1.26,1.26,0,0,0,1.25,1.25l8.2-.2a1.26,1.26,0,0,0,1.25-1.25A1.28,1.28,0,0,0,192.89,406.42Z" transform="translate(0.21)"></path>
        <path class="cls-4" d="M183,439.6a14.83,14.83,0,0,0,9.29-1,1.25,1.25,0,0,0,.45-1.71,1.29,1.29,0,0,0-1.71-.45,12,12,0,0,1-7.36.7,1.25,1.25,0,1,0-.67,2.41Z" transform="translate(0.21)"></path>
        <path class="cls-4" d="M191.93,452.78a24.45,24.45,0,0,1-9.26.1,1.29,1.29,0,0,0-1.54.87,1.27,1.27,0,0,0,.88,1.54,27.89,27.89,0,0,0,10.58-.09,1.27,1.27,0,0,0,.88-1.54A1.29,1.29,0,0,0,191.93,452.78Z" transform="translate(0.21)"></path>
        <path class="cls-4" d="M189.21,482.63a24.45,24.45,0,0,1-9.26.1,1.25,1.25,0,1,0-.66,2.41,27.69,27.69,0,0,0,10.58-.1,1.25,1.25,0,0,0,.88-1.53A1.29,1.29,0,0,0,189.21,482.63Z" transform="translate(0.21)"></path>
        <path class="cls-4" d="M189.78,468.08l-8.19.2a1.26,1.26,0,0,0-1.25,1.25,1.28,1.28,0,0,0,1.25,1.25l8.19-.2a1.26,1.26,0,0,0,1.25-1.25A1.27,1.27,0,0,0,189.78,468.08Z" transform="translate(0.21)"></path>
        <path class="cls-4" d="M188,498.15a12.09,12.09,0,0,1-7.37.69,1.25,1.25,0,0,0-.66,2.41,14.77,14.77,0,0,0,9.29-.94,1.25,1.25,0,1,0-1.26-2.16Z" transform="translate(0.21)"></path>
        <path class="cls-4" d="M1351.65,354.84a680.93,680.93,0,0,1-78.73,3.48q-11-.17-22-.67-1-9.67-2.12-19.33-2.77-25-5.8-49.87c-.25-2-.51-4.06-.76-6.09a1.27,1.27,0,0,0-.06-.28,1.1,1.1,0,0,0-1.19-1l-26.93,1.21-13.34.6c-1.74.08-3.92-.14-5.51.71s-1.9,2.63-1.91,4.29c-.2,18.06,0,36.13,0,54.19q0,14.73,0,29.48l-.13,0h-42q-3.72-17.77-7.37-35.56a1.05,1.05,0,0,0-.83-.87,1.52,1.52,0,0,0-.38-.05l-47.81,1.35a1.18,1.18,0,0,0-.92.44l-.24-2q-3.06-25.56-5.77-51.14c-.19-1.84-.39-3.67-.58-5.51a1.27,1.27,0,0,0-.69-2.29h-36.88a1.26,1.26,0,0,0-1,2,1,1,0,0,0-.08.41c-.49,17.95,1.38,35.85,3.61,53.63s4.8,35.43,5.73,53.28a218,218,0,0,1-.29,28.69h-13.42a225.7,225.7,0,0,0-20.87-39.14c-15.47-23-31.44-35.76-39.82-41V308.53a3.2,3.2,0,0,0-6.39,0v23.31l0,0,0,.14v.18h.06l0,.15c0,26.38.43,53,.89,78.84H937.58q-1.74-17.56-4-35.06-2.86-22.39-6.55-44.67c-.2-1.17-1.56-1.11-2.15-.36-16.46,2.91-35.21,3.18-51.84,1.54-.64-.06,4.26,14.72,7.58,28.49,2.75,11.37,3.77,21.12,5.41,29.34a8.67,8.67,0,0,0-1.21-.25,67.47,67.47,0,0,0-8.65,0l-19.21.18-38.16.36c-7.24.07-22.77-.32-22.94.08-1.88-10.82-3.83-20.77-6.09-31.52a1.07,1.07,0,0,0-.89-.88,1.55,1.55,0,0,0-.32,0H740.66a6,6,0,0,0,1.17-.5,6.85,6.85,0,0,0,3.2-.57,7.68,7.68,0,0,0,4.87-7,45.58,45.58,0,0,0-.38-6.16,24.87,24.87,0,0,0-.44-3.1,5.3,5.3,0,0,1,.71-4,3.54,3.54,0,0,1,2.3-1.47c1-.32,1.81-1.13,1.69-1.87s-.95-1.31-2.14-1.23a3.74,3.74,0,0,0-3.18,2.56,12.2,12.2,0,0,0-.78,4.83c-.1,3.49.39,7-.35,10.48a6.29,6.29,0,0,1-2.42,3.87,3.35,3.35,0,0,1-3,.8c0-.19,0-.35.05-.43a12.09,12.09,0,0,0,2.09-7.05,16.58,16.58,0,0,0-1.11-6.67c-.93-2.35-2.1-4.6-3.16-6.9a3.88,3.88,0,0,1-.52-1.28c0-.58,1.84-1.64,2.42-1.5a2.33,2.33,0,0,0,2.64-.6h-2.42c.74-1.82,2.44-.61,3.45-1.49H743c.12-.91.49-1.45,1.34-1.53.51,0,.78-.2.48-.8l-1,.39a7.39,7.39,0,0,1,0-.83,8.58,8.58,0,0,0-1.72-6.48A1.22,1.22,0,0,1,742,319c.19-1,.46-2,.64-3a9.42,9.42,0,0,0,0-1.53c-.33.18-.54.28-.73.41-.84.59-1.65,1.24-2.54,1.76a1.52,1.52,0,0,1-1.25.07,11.92,11.92,0,0,0-9.54-.48c-2.14.75-2.12.82-3.46-1-.15-.2-.25-.44-.41-.63a2.25,2.25,0,0,0-.45-.35,1.8,1.8,0,0,0-.29.52c-.42,2.62-.81,5.24-1.21,7.85-.17,1.12-.33,2.23-.51,3.43l-1.31-.55-.2.34a5.64,5.64,0,0,0,1,.6,1.21,1.21,0,0,1,1,1.61h-2.23l-.06.36a9.37,9.37,0,0,0,1.8.29c.84,0,1.38.2,1.57,1.14l-1.83.09c-1.29,0-1.29,0-1.45.83,1.08-.14,2.1-.32,3.13-.4a1.72,1.72,0,0,1,1.09.3,8.25,8.25,0,0,1,1.28,1.48,1,1,0,0,1,.12.78c-.88,2.61-1.76,5.22-2.72,7.79-1.2,3.23-3,8.61-2,14h0a5.34,5.34,0,0,0,3,3.69H706.71c.09-5.38.11-10.83.73-16.18.72-.49.56-1.87-.52-1.82l-8.17.32c-.54-14.12-.91-28.24-1.4-42.36-.58-16.38-1.12-32.78-2.34-49.12-.22-2.93-.46-5.86-.81-8.78-.15-1.15-.35-2.27-1.5-2.84s-2.8-.26-4.09-.38-2.65-.42-4-.54a12.33,12.33,0,0,0-3.27.16,39,39,0,0,1-1.11-8,54.6,54.6,0,0,1,1-9,1,1,0,0,0-1-1.27c-2.82.11-5.64.07-8.45,0a1.23,1.23,0,0,0,.07-.29q.74-16.28.11-32.55c0-1.29-2-1.29-2,0q.63,16.27-.11,32.55a.66.66,0,0,0,0,.25c-3.05-.06-6.1-.11-9.16,0-.49,0-1.07.45-1,1a212.08,212.08,0,0,1,1.06,36.6v0c-2.07,0-4.13,0-6.2,0a1,1,0,0,0-1,1l0,50.83q0,7.08,0,14.16c-2.67,0-5.33-.26-8-.48a.82.82,0,0,0-.89.54,1,1,0,0,0-.11.46c.09,12.48,0,25,.61,37.5.12,2.32.18,4.63.21,6.95h-89.3a1.34,1.34,0,0,0-.46.08q-.12-18.35-.36-36.69a1.17,1.17,0,0,0-.24-.74,1.28,1.28,0,0,0-.86-2.17l-41.37-.72c-2.52,0-5.63-.4-6.82,2.4a7.9,7.9,0,0,0-.47,3.13c0,1.82,0,3.64,0,5.46l.06,20.38q0,6,0,12.05c-2.27.47-18.74,4.12-33.36,0a79.8,79.8,0,0,0-30.48-2.26l-.85.13-.05,21.8-34,1.83c0-2.59-.08,27-.09,24.4q-.08-10.85.09-21.68c.09-5.16,1.13-13.15-5.84-14.08-3.39-.45-7-.13-10.4-.13H358.47q.11-19.25.32-38.49a1.26,1.26,0,0,0-1.25-1.25c-18.1,0-36.15-1.82-54.25-1.89q.3-20.19.86-40.39c.05-1.46-2-1.59-2.42-.41a1.14,1.14,0,0,0-1.16-.91l-41,.18a1.26,1.26,0,0,0-1.25,1.25q-1.92,36.81-3.83,73.61l-1,19.64H223.53l.7-19.32-16.86-.61.84-23.52L174.94,347l-.49,13.66v.13a37.06,37.06,0,0,1-.23,9.75c-1.38,0-2.74,0-4.17,0a70.42,70.42,0,0,1-11.81-.58l-1.21-.18.06,1.22c.63,12.31.72,23.45.16,36.33a209.73,209.73,0,0,1-21.86-.08,119.92,119.92,0,0,0-13.93-.3c-5.26.26-10.51.77-15.75,1.32a1.29,1.29,0,0,0-.57.2q-.48-17.62-2.54-35.16-1.12-9.51-2.71-19a1.26,1.26,0,0,0-1.54-.87,284.88,284.88,0,0,1-45.79,4.64,1.26,1.26,0,0,0-1.25,1.25c0,9-.25,18-.45,26.93l-.09,3.59a1.21,1.21,0,0,0-.52-.11c-8.74-.07-17.52-.42-26.25-.11-5.73.2-11.46.44-17.19.66-1.94.08-3.88.2-5.82.21a1.25,1.25,0,0,0,0,2.5c9.65,0,19.28-1,28.94-.91l20.32.15a1.36,1.36,0,0,0,.47-.08q-.39,16.67-.8,33.35-.49,21.73-.89,43.47c-.22,13.39-.38,26.78-.34,40.17,0,6.16,0,12.33.22,18.5H-.21V565H171.6L229.21,567l.07-2.07H440.81l0,29.09h2l0-29.09h51.35l-2,32.4,2,.27L496.32,565h852.42V527.74h-79.23q-2.05-17.18-4-34.36-2.88-25.67-5.59-51.35-2.76-26-5.49-52-1.59-15-3.21-29.89a680.07,680.07,0,0,0,78.2-.91q11.13-.76,22.23-1.91C1353.23,357.18,1353.25,354.68,1351.65,354.84Zm-623.73-.37a.5.5,0,0,1,.41.74.59.59,0,0,1-.9.07.49.49,0,0,1-.14-.32c0-.3.34-.49.64-.49ZM727,342.6a.6.6,0,1,1,.85-.66v.14A.62.62,0,0,1,727,342.6ZM730,337c.4,0,.71.51.66,1.07,0,.3-.3.72-.5.68a.75.75,0,0,1-.74-.51C729.3,337.76,729.64,337.06,730,337Zm2.76,12.42a.5.5,0,0,1,.4.74.58.58,0,0,1-.89.07.5.5,0,0,1-.15-.32c0-.3.34-.49.64-.49Zm4-10.14a.59.59,0,1,1,.84-.66v.13A.62.62,0,0,1,736.77,339.29Zm1.54,5c.46.22.37.73.09,1a.84.84,0,0,1-1.13.09.71.71,0,0,1,0-1.08A1.23,1.23,0,0,1,738.31,344.31Zm-1.79,10.58a1.18,1.18,0,0,1,1-.05c.47.22.37.73.09,1a.82.82,0,0,1-1.12.09A.71.71,0,0,1,736.52,354.89Zm-2-32.78.2-.21c.7-.71,1.43-1.45,2.28-1.45h.1a3.27,3.27,0,0,1,2.44,1.66.48.48,0,0,1,.06.18.48.48,0,0,1,0,.24,2,2,0,0,1-.7.88,3.14,3.14,0,0,1-2,.7l-.28,0a2.55,2.55,0,0,1-2-1.26l-.08-.12-.08-.14A.47.47,0,0,1,734.55,322.11Zm-1.58,6c0-.13,0-.27,0-.42v0l-.12-.07c-.17-.14-.32-.31-.48-.45s-.15-.13-.21-.2a.88.88,0,0,1-.19-.49.81.81,0,0,1,.54-.75.73.73,0,0,1,.61.09.77.77,0,0,1,.54-.1.8.8,0,0,1,.59.55.49.49,0,0,1,0,.17.7.7,0,0,1-.09.42,1.55,1.55,0,0,1-.24.28c-.08.07-.15.16-.24.23l-.29.25a.39.39,0,0,1-.14.08v.44h0c0,.09.06.17.2.24a1.91,1.91,0,0,0,1,.16c.26,0,.7-.11.82-.42a.15.15,0,0,1,.19-.08.12.12,0,0,1,.07.17.8.8,0,0,1-.46.46,2,2,0,0,1-.82.16,3.29,3.29,0,0,1-.54-.05,1.23,1.23,0,0,1-.65-.32.64.64,0,0,1-.15.13,1.89,1.89,0,0,1-1,.24l-.31,0c-.55-.06-.91-.26-1-.6a.14.14,0,0,1,.08-.17.16.16,0,0,1,.19.08.59.59,0,0,0,.35.31,2,2,0,0,0,1.11.08c.28-.05.61-.16.6-.37h0Zm-6.34-6,.07-.08.13-.13c.73-.74,1.47-1.52,2.38-1.45a3.27,3.27,0,0,1,2.44,1.66.35.35,0,0,1,.05.18.49.49,0,0,1,0,.24,2,2,0,0,1-.7.88,3.16,3.16,0,0,1-2,.7l-.28,0a2.56,2.56,0,0,1-2-1.26l-.07-.12-.08-.14A.45.45,0,0,1,726.63,322.11Zm-.84,25.51a.42.42,0,0,1,.58-.28c.54.06.76.65.55.87a.69.69,0,0,1-.86.05A.63.63,0,0,1,725.79,347.62Zm369.1-8.68,46.8-1.32q8.43,41.11,17.2,82.16,8.77,41.39,17.54,82.77,2.64,12.58,5.26,25.19h-60.17q-3-17.68-5.83-35.4-4.15-26-8-52.11-3.87-26.43-7.38-52.91-3.22-24.27-6.16-48.56A1.24,1.24,0,0,0,1094.89,338.94ZM1058,416.42a1,1,0,0,0,.25,0,1.34,1.34,0,0,0,1.9-1.07c1.58-17.85.38-35.77-1.61-53.52s-4.75-35.48-6.29-53.32a268.58,268.58,0,0,1-1-30h33.7q2.61,25.07,5.57,50.11,3.11,26.3,6.56,52.56,3.46,26.44,7.28,52.85t7.92,52.49q3.26,20.65,6.76,41.27h-50c-2.92-42.51-10.83-79.76-23.64-111.32ZM1036.2,490a45,45,0,0,1-14,1.76c-10,0-20.06-.42-30.09-.65l-.23,0V465.19a1.18,1.18,0,0,0,.21,0q13.49,1.2,27,1.8,6.65.28,13.29.43a55.19,55.19,0,0,0,6.3,0,5.27,5.27,0,0,0,3.29-1.34c1.82,7,3.57,14.18,5.19,21.6C1043.35,487.35,1039.89,488.79,1036.2,490Zm11.56.37q1.59,7.48,3,15.19l.41,2.5c.29,2,.57,3.79.84,5.46,0,.2,0,.39.08.58-10.11-.46-19.83,3.26-29.93,3.19s-20.14-2.55-30.26-1.34V493.56a.85.85,0,0,0,.23,0c9.87.23,19.75.6,29.62.65a49.68,49.68,0,0,0,13.9-1.47C1039.61,491.65,1043.51,489.47,1047.76,490.35Zm-7.31-26.15c-.85,1.24-3.3.83-4.57.81q-3.08,0-6.15-.12-6.29-.17-12.56-.46-12.55-.58-25.07-1.71h-.21V441.8H992c13.81-.67,29.08,4.23,41.65-3.71a2.31,2.31,0,0,0,.23-.18c2.5,7.89,5.05,16.54,7.5,25.73A1.22,1.22,0,0,0,1040.45,464.2Zm-8.08-28.26c-12.08,7.63-27.12,2.73-40.39,3.37h-.08V416.48a84.39,84.39,0,0,0,33.24-4c2.42,6.53,5.18,14.41,8,23.31A1.11,1.11,0,0,0,1032.37,435.94ZM991.9,414v-1l0-19.95a67.4,67.4,0,0,0,25.16-.12,176.44,176.44,0,0,1,7.23,17.23A82.55,82.55,0,0,1,991.9,414Zm-.11-23,0-31.15A168.41,168.41,0,0,1,1011,383.07c1.61,2.37,3.28,5,5,8A64.6,64.6,0,0,1,991.79,390.94Zm.08,127.49c10.12-1.21,20.15,1.27,30.26,1.34s19.87-3.67,30-3.19a1.29,1.29,0,0,0,.28,0q.79,5.58,1.46,11.17h-62ZM1020.53,374c32.49,47.06,43.32,108.31,46.5,153.73h-10.94c-.48-4.42-1-8-1.69-11.84-.15-.88-.29-1.78-.44-2.71-.4-2.66-.82-5.33-1.25-8l-.9.14.89-.16C1042.87,450,1023.41,401,1019.09,392.5h0l-.28-.49-.12-.21h0l-.28-.51c-1.94-3.45-3.87-6.59-5.74-9.34a168.41,168.41,0,0,0-21.23-25.25L989.77,355l.09,172.7h-9.93c2-27.23,1.23-66.94.4-112.34,0-.75,0-1.51,0-2.26a1.4,1.4,0,0,0,0-1.45c-.46-25.57-.92-51.91-.9-78C984.39,336.15,1002.37,347.71,1020.53,374Zm-41.27-65.48a1.2,1.2,0,0,1,2.39,0v24.11c-1-.53-1.76-.93-2.39-1.2Zm-1,105.16,0,1.74c.83,45.45,1.55,85.17-.41,112.31H943.57q-.14-35.88-2.36-71.72-1.32-21.19-3.38-42.33Zm-102.53-78a.5.5,0,0,1,0-.13,185.65,185.65,0,0,0,49.15-1.93q6.39,38.94,10.27,78.23,3.93,39.81,5.26,79.84.6,18,.66,36.05h-8.64Q930.62,507,929,486.3c-2.21-28.15-4.3-56.32-6.5-84.48q-2.07-26.73-4.29-53.44c-.13-1.6-2.63-1.61-2.5,0q3.84,46.22,7.3,92.48c2,25.71,3.88,51.42,6.05,77.11.27,3.25.56,6.51.85,9.77H915.13c-2.23-17.25-3.86-34.57-5.24-51.91-2.14-26.92-3.77-53.89-6.28-80.78-1.48-15.93-3.26-31.82-5.52-47.66-.22-1.58-2.63-.91-2.41.67,4,27.85,6.38,55.87,8.46,83.92,2,26.49,3.67,53,6.53,79.43.59,5.45,1.26,10.89,2,16.33h-12.3q-.58-3-1.08-6.11c-1.58-10-2.39-20.09-3.2-30.17q-2.49-30.88-5-61.77C890.12,418.1,890.13,377.64,875.77,335.68ZM870,392.76l10-.09a40.55,40.55,0,0,1,4.41,0,2.88,2.88,0,0,1,2.19.89c-.48.12,2.25,39,3.78,58,1.51,18.69,2.74,37.42,4.65,56.07.52,5.08,1.14,10.15,1.95,15.18.26,1.66.56,3.32.87,5h-88.1c-1-17.91-2-35.8-3.44-53.67-1.91-23.85-4.59-47.63-8.36-71.26q-.78-4.85-1.62-9.69C796.47,393.32,845.68,393,870,392.76ZM706.4,408c0-2.09,0-4.18,0-6.26,0-13.63,0-27.25.23-40.87h80.89c5.16,24.57,9.35,49.32,12.34,74.25,2.83,23.59,4.64,47.29,6.06,71q.66,10.79,1.23,21.6H717.13l.49-18.7h66.83v-3.39H717.71l.93-36h65.81v-3.38H718.73l.56-21.55A1.05,1.05,0,0,0,719,444a1,1,0,0,0-.71-.3H705.14a.74.74,0,0,0,0-.14c.65-9.74,0-19.49.76-29.22C706.12,412.24,706.37,410.15,706.4,408Zm8.73,119.73H700.56v-82h16.7Zm-9.72-185.3c-.52,4.68-.55,9.44-.66,14.14,0,.76-.24,16.21-.27,22.43,0,6.9,0,13.81,0,20.71,0,3.48.18,7-.1,10.51-.44,5.47-.84,10.87-.8,16.37,0,5.67,0,11.32-.36,17,0,.05,0,.09,0,.14h-3.65a1,1,0,0,0-1,1v83h-6.76q-.09-9.54-.17-19.08l-.26-29.18q-.11-11.13-.2-22.24c0-2.39,0-4.77,0-7.16V343ZM679.1,220.55a49.75,49.75,0,0,0-.85,8.25,45.38,45.38,0,0,0,1.38,9.48,1,1,0,0,0,1.23.7c2.43-.58,4.59-.13,7,.16a17.72,17.72,0,0,0,1.93.15c.65,0,1.88-.25,2.27.46a5.64,5.64,0,0,1,.24,1.8c.3,2.66.52,5.34.71,8,.54,7.25.91,14.52,1.24,21.78.77,16.68,1.31,33.36,1.84,50,.2,6.47.39,12.93.64,19.4l-6.64.26a1,1,0,0,0-1,1v105c0,2.33,0,4.65,0,7q.09,9.54.17,19.07.13,14.19.25,28.38l.24,26.25H682c-.05-11.91-.3-23.82-.61-35.72-.48-18.06-1.13-36.11-1.65-54.17-.5-17.3-.75-34.59-.84-51.9q-.14-30.61-1.44-61.19t-2.72-60.94q-.16-3.85-.34-7.69a1,1,0,0,0-1.93-.41c-3.2.2-6.39.33-9.59.4a215.23,215.23,0,0,0-1-35.63C667.63,220.3,673.36,220.7,679.1,220.55Zm-23.47,50.79q0-6.6,0-13.19,8.4.09,16.79-.43l2.64,59.35c.92,20.48,1.57,40.94,1.75,61.44.14,17.65.22,35.28.7,52.92.48,17.94,1.13,35.87,1.64,53.81.41,14.16.73,28.33.8,42.5H669.44c-.37-11.16-.87-22.31-1.36-33.46-.57-13-1.26-26-.9-38.94.18-6.41.73-12.8.88-19.22.2-7.8.14-15.6-.07-23.4-.41-15.53-1.41-31-2.42-46.53-.86-13.27-1.84-26.55-2-39.85,0-1.39,0-2.78,0-4.17a1,1,0,0,0-1.27-1,52,52,0,0,1-6.68.88Zm-1.33,52.81a46.48,46.48,0,0,0,7.25-.8c0,12.43.86,24.86,1.66,37.25,1,15.44,2,30.88,2.6,46.34.28,7.79.43,15.58.35,23.36-.06,7.13-.47,14.21-.83,21.32-.62,12.32,0,24.69.51,37,.55,13,1.17,26.07,1.61,39.12H656.59l-1.13-125.4a1,1,0,0,0-1-1h-7.22c.13-12.28.49-24.6.2-36.89-.09-4.11-.38-8.22-.47-12.34-.2-9.46-.27-18.92-.34-28.37C649.18,324,651.74,324.19,654.3,324.15Zm-.84,79.2,1.13,124.39H631l-2.42-124.39Zm-98.05,64.53q.55-44,.36-87.93c0-3.47,0-6.94-.07-10.42a1.19,1.19,0,0,0,.44.08h89.33v2.91c0,9.61-.14,19.22-.23,28.83H627.57a1,1,0,0,0-.72.3,1,1,0,0,0-.28.72L629,527.74H554.33Q555,497.8,555.41,467.88Zm-197-83.13c0-.63,0-1.27,0-1.9H396c2.54,0,6.45-.68,7.83,2.07,1.27,2.52.7,5.95.66,8.65q-.18,10.85-.12,21.68.25,42.88,4.35,85.61,1.31,13.47,3,26.88H359.16q-.5-33.58-.71-67.18Q358.24,422.66,358.44,384.75Zm-55.29-34.13q0-4.69.11-9.4c17.69.07,35.33,1.78,53,1.87q-.42,37.55-.43,75.08,0,37.9.37,75.81.16,16.88.43,33.76h-8.92q-1-29.16-1.43-58.34-.63-38-.58-76,0-19.53.26-39.07a1.25,1.25,0,0,0-2.5,0q-.47,36-.17,72,.24,38,1.16,76,.31,12.72.76,25.46H330.68q.36-31.07.71-62.12L332.2,392q.23-19.89.46-39.77a1.25,1.25,0,0,0-2.5,0q-.42,35.92-.82,71.86l-.81,73.61q-.18,15-.35,30h-7.13c-.13-18.95-.43-37.9-.75-56.84-.45-26.81-1-53.61-1.31-80.42-.17-13.81-.3-27.62-.3-41.43a1.25,1.25,0,0,0-2.5,0c0,25.49.4,51,.83,76.47.45,26.8,1,53.6,1.31,80.41q.14,10.91.22,21.81H306.81q-2.15-42-3.11-84Q302.68,397.21,303.15,350.62Zm-52.52,43.57h4a1.28,1.28,0,0,0,1.25-1.25q1.91-36.79,3.82-73.61l1-19.64,39.81-.18a1.14,1.14,0,0,0,1.07-.66q-1.31,46.29-1.12,92.62.18,46.57,1.88,93.14.78,21.57,1.9,43.13H218.64l4.8-133.55Zm-91.45,15.13a1.43,1.43,0,0,0,.06-1.44c.57-12.69.51-23.69-.08-35.73a75.7,75.7,0,0,0,10.93.44c1.7,0,3.3,0,4.94,0l.85,0,.16-.83a37.45,37.45,0,0,0,.41-11.09l.42-11.6,29.27,1.06-.84,23.52,16.86.61-.65,17.88a1.4,1.4,0,0,0,0,1.45l-4.82,134.11H153.47l.05-1.53c.67-5,1-19.44,1.35-36.13.35-16.18.75-34.52,1.57-44.93C157.79,431.1,158.69,419.62,159.18,409.32Zm-54,1.44a1.13,1.13,0,0,0,.53.06c7.52-.78,15.13-1.63,22.7-1.43,4.66.13,9.3.63,14,.71,4.92.09,9.85,0,14.77-.22-.5,10.11-1.38,21.36-2.71,35.1-.81,10.48-1.22,28.85-1.57,45-.35,16-.68,31-1.34,36l-.06,1.7H121.63c-.57-8.1-1.26-16.19-1.95-24.28-1.62-18.78-3.37-37.59-3.64-56.46,0-1.21,0-2.43,0-3.64a7.58,7.58,0,0,0-.24-2.64,3.65,3.65,0,0,0-3-2.19c-2.62-.44-5.44.3-8,1.15Q105.51,425.24,105.19,410.76Zm-54,102.76c-.09-13.07.05-26.14.24-39.21q.33-21.74.85-43.47.46-20.1,1-40.2c.22-9.61.46-19.23.54-28.84v-1.17a286.74,286.74,0,0,0,43.85-4.46,387.57,387.57,0,0,1,5.13,66.22q-.08,9.54-.63,19.06a1.25,1.25,0,0,0,1.58,1.2c2.53-.87,5.39-1.91,8.1-1.72.88.05,1.58.21,1.67,1.15.2,2.11,0,4.32,0,6.43.17,8.89.67,17.76,1.3,26.63,1.25,17.54,3,35.05,4.26,52.6H51.41C51.28,523,51.25,518.25,51.22,513.52Zm363,14.22q-4.2-33.72-6-67.66c-.6-11.19-1-51.56-1.19-62.76l33.95-1.83-.1,132.25Zm28.65,0,.1-104.08a1.61,1.61,0,0,0,0-.69l.05-53a80.1,80.1,0,0,1,28.79,2.32c13.81,3.84,29.72-.18,33.91.6l-9.3,154.87Zm65.33-145.48V382a1.29,1.29,0,0,0,.05-.35q-.06-19.38-.13-38.77l0-9.69c0-.94-.22-2.55.5-3.31.89-.94,3.15-.48,4.29-.46l19.44.34,20.6.36a1.43,1.43,0,0,0-.07.43q.6,44,.47,87.92t-1,87.92q-.21,10.7-.47,21.4h-53.1Zm743.06,1.27q2.77,26,5.5,52t5.59,51.74q2.27,20.25,4.69,40.49h-82.77q-6.48-31.19-13.11-62.33-8.78-41.39-17.54-82.77c-.6-2.86-1.19-5.71-1.79-8.57h41.43a1.2,1.2,0,0,0,.71-.21,1.26,1.26,0,0,0,1.92-1q0-26,0-51.94,0-13,0-26v-6.49c0-.78-.18-2,.52-2.52s1.89-.37,2.67-.4l12.85-.58,28.06-1.26q3,24.24,5.72,48.52Q1248.53,357.85,1251.23,383.53ZM978.3,413.69l0,1.74c.83,45.45,1.55,85.17-.41,112.31H943.57q-.14-35.88-2.36-71.72-1.32-21.19-3.38-42.33Zm272.93-30.16q2.77,26,5.5,52t5.59,51.74q2.27,20.25,4.69,40.49h-82.77q-6.48-31.19-13.11-62.33-8.78-41.39-17.54-82.77c-.6-2.86-1.19-5.71-1.79-8.57h41.43a1.2,1.2,0,0,0,.71-.21,1.26,1.26,0,0,0,1.92-1q0-26,0-51.94,0-13,0-26v-6.49c0-.78-.18-2,.52-2.52s1.89-.37,2.67-.4l12.85-.58,28.06-1.26q3,24.24,5.72,48.52Q1248.53,357.85,1251.23,383.53Z" transform="translate(0.21)"></path>
        <circle class="cls-4" cx="570.43" cy="382.72" r="4.24"></circle>
        <path class="cls-4" d="M590.41,387a4.25,4.25,0,1,0-4.24-4.25A4.25,4.25,0,0,0,590.41,387Z" transform="translate(0.21)"></path>
        <circle class="cls-4" cx="610.82" cy="382.72" r="4.24"></circle>
        <path class="cls-4" d="M630.81,387a4.25,4.25,0,1,0-4.24-4.25A4.24,4.24,0,0,0,630.81,387Z" transform="translate(0.21)"></path>
        <circle class="cls-4" cx="570.43" cy="405.21" r="4.24"></circle>
        <path class="cls-4" d="M590.41,409.45a4.24,4.24,0,1,0-4.24-4.24A4.24,4.24,0,0,0,590.41,409.45Z" transform="translate(0.21)"></path>
        <circle class="cls-4" cx="610.82" cy="405.21" r="4.24"></circle>
        <circle class="cls-4" cx="570.43" cy="427.69" r="4.24"></circle>
        <path class="cls-4" d="M590.41,431.94a4.25,4.25,0,1,0-4.24-4.25A4.25,4.25,0,0,0,590.41,431.94Z" transform="translate(0.21)"></path>
        <circle class="cls-4" cx="610.82" cy="427.69" r="4.24"></circle>
        <circle class="cls-4" cx="570.43" cy="450.18" r="4.24"></circle>
        <path class="cls-4" d="M590.41,454.42a4.24,4.24,0,1,0-4.24-4.24A4.24,4.24,0,0,0,590.41,454.42Z" transform="translate(0.21)"></path>
        <circle class="cls-4" cx="610.82" cy="450.18" r="4.24"></circle>
        <circle class="cls-4" cx="570.43" cy="472.66" r="4.24"></circle>
        <path class="cls-4" d="M590.41,476.91a4.25,4.25,0,1,0-4.24-4.25A4.25,4.25,0,0,0,590.41,476.91Z" transform="translate(0.21)"></path>
        <circle class="cls-4" cx="610.82" cy="472.66" r="4.24"></circle>
        <circle class="cls-4" cx="570.43" cy="495.15" r="4.24"></circle>
        <path class="cls-4" d="M590.41,499.39a4.24,4.24,0,1,0-4.24-4.24A4.24,4.24,0,0,0,590.41,499.39Z" transform="translate(0.21)"></path>
        <circle class="cls-4" cx="610.82" cy="495.15" r="4.24"></circle>
        <circle class="cls-4" cx="570.43" cy="517.63" r="4.24"></circle>
        <path class="cls-4" d="M590.41,521.88a4.25,4.25,0,1,0-4.24-4.25A4.25,4.25,0,0,0,590.41,521.88Z" transform="translate(0.21)"></path>
        <circle class="cls-4" cx="610.82" cy="517.63" r="4.24"></circle>
        <path class="cls-4" d="M227.83,405.89h58.72a1.25,1.25,0,0,0,0-2.5H227.83A1.25,1.25,0,0,0,227.83,405.89Z" transform="translate(0.21)"></path>
        <path class="cls-4" d="M268.38,320a113.87,113.87,0,0,0,19.21-2.21c1.57-.32.91-2.73-.67-2.41a110,110,0,0,1-18.54,2.12C266.77,317.52,266.77,320,268.38,320Z" transform="translate(0.21)"></path>
        <path class="cls-4" d="M267,333.18h20.27a1.25,1.25,0,0,0,0-2.5H267A1.25,1.25,0,0,0,267,333.18Z" transform="translate(0.21)"></path>
        <path class="cls-4" d="M264.88,349.26h19.58a1.25,1.25,0,0,0,0-2.5H264.88A1.25,1.25,0,0,0,264.88,349.26Z" transform="translate(0.21)"></path>
        <path class="cls-4" d="M267.72,363.91c-1.59-.19-1.58,2.31,0,2.5,7.65.92,15.35-.91,23,0,1.6.19,1.58-2.31,0-2.5C283.07,363,275.37,364.83,267.72,363.91Z" transform="translate(0.21)"></path>
        <path class="cls-4" d="M263.13,386.16a235.65,235.65,0,0,0,30.4-1.4c1.57-.19,1.59-2.69,0-2.5a237.46,237.46,0,0,1-30.4,1.4A1.25,1.25,0,0,0,263.13,386.16Z" transform="translate(0.21)"></path>
        <path class="cls-4" d="M290.75,420.86H235.52a1.25,1.25,0,0,0,0,2.5h55.23A1.25,1.25,0,0,0,290.75,420.86Z" transform="translate(0.21)"></path>
        <path class="cls-4" d="M234.12,442.24h50.34a1.25,1.25,0,0,0,0-2.5H234.12A1.25,1.25,0,0,0,234.12,442.24Z" transform="translate(0.21)"></path>
        <path class="cls-4" d="M283,458.77c1.59-.14,1.6-2.64,0-2.5q-22.31,2-44.72,1.68a1.25,1.25,0,0,0,0,2.5Q260.7,460.72,283,458.77Z" transform="translate(0.21)"></path>
        <path class="cls-4" d="M234.14,475.15l52.42,1.73c1.61.06,1.61-2.44,0-2.5l-52.42-1.73C232.53,472.6,232.54,475.1,234.14,475.15Z" transform="translate(0.21)"></path>
        <path class="cls-4" d="M293.55,491q-30.41-.5-60.83-.15a1.25,1.25,0,0,0,0,2.5q30.42-.34,60.83.15A1.25,1.25,0,0,0,293.55,491Z" transform="translate(0.21)"></path>
        <path class="cls-4" d="M291.05,509.86A223.35,223.35,0,0,0,239,507c-1.6.1-1.61,2.6,0,2.5a220.43,220.43,0,0,1,51.37,2.79C292,512.54,292.64,510.13,291.05,509.86Z" transform="translate(0.21)"></path>
        <path class="cls-4" d="M286.55,525H236.92a1.25,1.25,0,0,0,0,2.5h49.63A1.25,1.25,0,0,0,286.55,525Z" transform="translate(0.21)"></path>
        <path class="cls-4" d="M373.49,417.5a9.06,9.06,0,0,0,6.16-3.05c1.93-2.15,3-4.87,4-7.55a1.27,1.27,0,0,0-.88-1.54,1.29,1.29,0,0,0-1.54.88c-1.26,3.45-2.85,7.68-6.85,8.63-3.7.88-5.71-2.78-5.39-6,.25-2.49,1.56-4.77,2.75-6.92.78-1.41-1.38-2.68-2.16-1.27-2.28,4.15-4.75,9.47-1.69,13.91A6.47,6.47,0,0,0,373.49,417.5Z" transform="translate(0.21)"></path>
        <path class="cls-4" d="M382.46,431.86c1.79,3.61,2.11,9.07-2.25,11a4.08,4.08,0,0,1-4.42-.6,6.24,6.24,0,0,1-1.67-4.15,20.84,20.84,0,0,1,.59-6.19c.36-1.56-2-2.23-2.41-.66-.92,4-1.62,9.56,1.67,12.72a6.48,6.48,0,0,0,6.56,1.42,8.34,8.34,0,0,0,5.22-5.21c1.08-3.16.31-6.65-1.13-9.55C383.9,429.16,381.74,430.43,382.46,431.86Z" transform="translate(0.21)"></path>
        <path class="cls-4" d="M384.45,456.72a1.26,1.26,0,0,0-.45,1.71,4,4,0,0,1,.83,1.72,5.32,5.32,0,0,1,.07,1.86c0,.06,0,.32-.06.35a4.54,4.54,0,0,1-.12.5c0,.15-.09.29-.14.44l-.09.24c0,.11,0-.06-.05.12a6.16,6.16,0,0,1-1.07,1.62A4.15,4.15,0,0,1,380,466.7a5.46,5.46,0,0,1-3.74-2,4.94,4.94,0,0,1-1.12-4.44,1.25,1.25,0,0,0-2.41-.67c-1.12,4.1,2,8.65,6.06,9.49s7.53-2.09,8.4-5.9a7.32,7.32,0,0,0-1.07-6A1.29,1.29,0,0,0,384.45,456.72Z" transform="translate(0.21)"></path>
        <path class="cls-4" d="M370.08,483.81c-1.54,4.77,2,10.19,6.71,11.38s9-2.27,10.08-6.73a8.56,8.56,0,0,0-1.17-7.08,1.28,1.28,0,0,0-1.71-.44,1.25,1.25,0,0,0-.44,1.71c1.92,2.64,1.23,6.42-1.09,8.69a5.33,5.33,0,0,1-4.4,1.56,6.86,6.86,0,0,1-4.37-2.66,6.29,6.29,0,0,1-1.2-5.77C373,482.93,370.57,482.28,370.08,483.81Z" transform="translate(0.21)"></path>
        <path class="cls-4" d="M386.64,509.76c1.4,4.48.49,10.49-4.47,12.3a6.17,6.17,0,0,1-6-.67,8,8,0,0,1-2.66-5.23,27.18,27.18,0,0,1,.18-7.64,1.25,1.25,0,0,0-1.25-1.25,1.29,1.29,0,0,0-1.25,1.25c-.63,4.81-1,11.18,3.18,14.61,4.64,3.85,11.69,1.38,14.14-3.77a14.12,14.12,0,0,0,.52-10.27C388.57,507.56,386.15,508.21,386.64,509.76Z" transform="translate(0.21)"></path>
        <path class="cls-4" d="M729.77,322.47a1.61,1.61,0,0,1-.33.93,3.75,3.75,0,0,0,.52-.15,3.1,3.1,0,0,0,.84-.47,1.76,1.76,0,0,0,.36-.4,2.72,2.72,0,0,0-2-1.25h0A1.7,1.7,0,0,1,729.77,322.47Z" transform="translate(0.21)"></path>
        <path class="cls-4" d="M737.39,323.39a3.43,3.43,0,0,0,.5-.14,3,3,0,0,0,.83-.47,2.06,2.06,0,0,0,.37-.4,2.86,2.86,0,0,0-1.8-1.22,1.92,1.92,0,0,1,.44,1.25A1.68,1.68,0,0,1,737.39,323.39Z" transform="translate(0.21)"></path>
        <rect class="cls-4" x="716.29" y="426.96" width="68.36" height="3.38"></rect>
        <rect class="cls-4" x="716.29" y="387.62" width="68.36" height="3.38"></rect>
        <path class="cls-4" d="M810.86,422.68h16.47a1,1,0,0,0,1-1V405.21a1,1,0,0,0-1-1H810.86a1,1,0,0,0-1,1v16.47A1,1,0,0,0,810.86,422.68Zm1-16.47h14.47v14.47H811.86Z" transform="translate(0.21)"></path>
        <path class="cls-4" d="M837,422.68h16.47a1,1,0,0,0,1-1V405.21a1,1,0,0,0-1-1H837a1,1,0,0,0-1,1v16.47A1,1,0,0,0,837,422.68Zm1-16.47h14.47v14.47H838Z" transform="translate(0.21)"></path>
        <path class="cls-4" d="M863.12,422.68h16.46a1,1,0,0,0,1-1V405.21a1,1,0,0,0-1-1H863.12a1,1,0,0,0-1,1v16.47A1,1,0,0,0,863.12,422.68Zm1-16.47h14.46v14.47H864.12Z" transform="translate(0.21)"></path>
        <path class="cls-4" d="M810.86,447.73h16.47a1,1,0,0,0,1-1V430.26a1,1,0,0,0-1-1H810.86a1,1,0,0,0-1,1v16.47A1,1,0,0,0,810.86,447.73Zm1-16.47h14.47v14.47H811.86Z" transform="translate(0.21)"></path>
        <path class="cls-4" d="M837,447.73h16.47a1,1,0,0,0,1-1V430.26a1,1,0,0,0-1-1H837a1,1,0,0,0-1,1v16.47A1,1,0,0,0,837,447.73Zm1-16.47h14.47v14.47H838Z" transform="translate(0.21)"></path>
        <path class="cls-4" d="M863.12,447.73h16.46a1,1,0,0,0,1-1V430.26a1,1,0,0,0-1-1H863.12a1,1,0,0,0-1,1v16.47A1,1,0,0,0,863.12,447.73Zm1-16.47h14.46v14.47H864.12Z" transform="translate(0.21)"></path>
        <path class="cls-4" d="M811.86,455.31v16.47a1,1,0,0,0,1,1h16.47a1,1,0,0,0,1-1V455.31a1,1,0,0,0-1-1H812.86A1,1,0,0,0,811.86,455.31Zm2,1h14.47v14.47H813.86Z" transform="translate(0.21)"></path>
        <path class="cls-4" d="M838,455.31v16.47a1,1,0,0,0,1,1h16.47a1,1,0,0,0,1-1V455.31a1,1,0,0,0-1-1H839A1,1,0,0,0,838,455.31Zm2,1h14.47v14.47H840Z" transform="translate(0.21)"></path>
        <path class="cls-4" d="M864.12,455.31v16.47a1,1,0,0,0,1,1h16.46a1,1,0,0,0,1-1V455.31a1,1,0,0,0-1-1H865.12A1,1,0,0,0,864.12,455.31Zm2,1h14.46v14.47H866.12Z" transform="translate(0.21)"></path>
        <path class="cls-4" d="M813.86,480.36v16.47a1,1,0,0,0,1,1h16.47a1,1,0,0,0,1-1V480.36a1,1,0,0,0-1-1H814.86A1,1,0,0,0,813.86,480.36Zm2,1h14.47v14.47H815.86Z" transform="translate(0.21)"></path>
        <path class="cls-4" d="M840,480.36v16.47a1,1,0,0,0,1,1h16.47a1,1,0,0,0,1-1V480.36a1,1,0,0,0-1-1H841A1,1,0,0,0,840,480.36Zm2,1h14.47v14.47H842Z" transform="translate(0.21)"></path>
        <path class="cls-4" d="M866.12,480.36v16.47a1,1,0,0,0,1,1h16.47a1,1,0,0,0,1-1V480.36a1,1,0,0,0-1-1H867.12A1,1,0,0,0,866.12,480.36Zm2,1h14.47v14.47H868.12Z" transform="translate(0.21)"></path>
        <path class="cls-4" d="M815.86,504.41a1,1,0,0,0-1,1v16.47a1,1,0,0,0,1,1h16.47a1,1,0,0,0,1-1V505.41a1,1,0,0,0-1-1Zm15.47,16.47H816.86V506.41h14.47Z" transform="translate(0.21)"></path>
        <path class="cls-4" d="M842,504.41a1,1,0,0,0-1,1v16.47a1,1,0,0,0,1,1h16.47a1,1,0,0,0,1-1V505.41a1,1,0,0,0-1-1Zm15.47,16.47H843V506.41h14.47Z" transform="translate(0.21)"></path>
        <path class="cls-4" d="M868.12,504.41a1,1,0,0,0-1,1v16.47a1,1,0,0,0,1,1h16.47a1,1,0,0,0,1-1V505.41a1,1,0,0,0-1-1Zm15.47,16.47H869.12V506.41h14.47Z" transform="translate(0.21)"></path>
        <path class="cls-4" d="M66.61,379.56H77.12a1.25,1.25,0,0,0,0-2.5H66.61A1.25,1.25,0,0,0,66.61,379.56Z" transform="translate(0.21)"></path>
        <path class="cls-4" d="M63.06,393.35a20.1,20.1,0,0,0,10.17.81,1.27,1.27,0,0,0,.88-1.54,1.29,1.29,0,0,0-1.54-.88,17.5,17.5,0,0,1-8.84-.8,1.26,1.26,0,0,0-1.54.87A1.28,1.28,0,0,0,63.06,393.35Z" transform="translate(0.21)"></path>
        <path class="cls-4" d="M88.68,394.27h5.26A1.26,1.26,0,0,0,95.19,393a1.28,1.28,0,0,0-1.25-1.25H88.68a1.25,1.25,0,0,0,0,2.5Z" transform="translate(0.21)"></path>
        <path class="cls-4" d="M75,405.44H64.51a1.25,1.25,0,0,0,0,2.5H75A1.25,1.25,0,0,0,75,405.44Z" transform="translate(0.21)"></path>
        <path class="cls-4" d="M87.63,409h5.25a1.25,1.25,0,1,0,0-2.5H87.63a1.25,1.25,0,0,0,0,2.5Z" transform="translate(0.21)"></path>
        <path class="cls-4" d="M87.63,423.3H69.76a1.25,1.25,0,0,0,0,2.5H87.63A1.25,1.25,0,0,0,87.63,423.3Z" transform="translate(0.21)"></path>
        <path class="cls-4" d="M60.3,441.57h8.41a1.25,1.25,0,0,0,0-2.5H60.3a1.25,1.25,0,0,0,0,2.5Z" transform="translate(0.21)"></path>
        <path class="cls-4" d="M91,442.42a1.27,1.27,0,0,0-1.25-1.25h-6.3a1.25,1.25,0,0,0,0,2.5h6.3A1.26,1.26,0,0,0,91,442.42Z" transform="translate(0.21)"></path>
        <path class="cls-4" d="M67.86,460.29A1.27,1.27,0,0,0,66.61,459H59.25a1.25,1.25,0,1,0,0,2.5h7.36A1.27,1.27,0,0,0,67.86,460.29Z" transform="translate(0.21)"></path>
        <path class="cls-4" d="M76.07,461.54h7.36a1.25,1.25,0,0,0,0-2.5H76.07a1.26,1.26,0,0,0-1.25,1.25A1.27,1.27,0,0,0,76.07,461.54Z" transform="translate(0.21)"></path>
        <path class="cls-4" d="M102.34,461.14H96a1.25,1.25,0,1,0,0,2.5h6.3a1.26,1.26,0,0,0,1.25-1.25A1.27,1.27,0,0,0,102.34,461.14Z" transform="translate(0.21)"></path>
        <path class="cls-4" d="M63.46,479a1.26,1.26,0,0,0-1.25,1.25,1.27,1.27,0,0,0,1.25,1.25h7.35a1.25,1.25,0,0,0,0-2.5Z" transform="translate(0.21)"></path>
        <path class="cls-4" d="M93.94,479H83.43a1.25,1.25,0,0,0,0,2.5H93.94A1.25,1.25,0,0,0,93.94,479Z" transform="translate(0.21)"></path>
        <path class="cls-4" d="M79.22,497.93H62.41a1.25,1.25,0,0,0,0,2.5H79.22A1.25,1.25,0,0,0,79.22,497.93Z" transform="translate(0.21)"></path>
        <path class="cls-4" d="M90.58,499.18a1.28,1.28,0,0,0,1.25,1.25h7.36a1.25,1.25,0,0,0,0-2.5H91.83A1.26,1.26,0,0,0,90.58,499.18Z" transform="translate(0.21)"></path>
        <path class="cls-4" d="M102.34,513.69H87.63a1.25,1.25,0,0,0,0,2.5h14.71A1.25,1.25,0,0,0,102.34,513.69Z" transform="translate(0.21)"></path>
        <path class="cls-4" d="M70.81,513.69h-8.4a1.25,1.25,0,1,0,0,2.5h8.4a1.25,1.25,0,0,0,0-2.5Z" transform="translate(0.21)"></path>
        <path class="cls-4" d="M1123.3,366.27a6.56,6.56,0,1,0-7.51-5.46A6.55,6.55,0,0,0,1123.3,366.27Z" transform="translate(0.21)"></path>
        <path class="cls-4" d="M1126.81,388.54a6.56,6.56,0,1,0,7.51,5.46A6.56,6.56,0,0,0,1126.81,388.54Z" transform="translate(0.21)"></path>
        <path class="cls-4" d="M1132.36,423.77a6.56,6.56,0,1,0,7.51,5.47A6.57,6.57,0,0,0,1132.36,423.77Z" transform="translate(0.21)"></path>
        <path class="cls-4" d="M1137.91,459a6.57,6.57,0,1,0,7.51,5.46A6.56,6.56,0,0,0,1137.91,459Z" transform="translate(0.21)"></path>
        <path class="cls-4" d="M1143.47,494.24a6.56,6.56,0,1,0,7.5,5.47A6.57,6.57,0,0,0,1143.47,494.24Z" transform="translate(0.21)"></path>
        <path class="cls-4" d="M1337.08,387.35a454.51,454.51,0,0,1-55.06-3.62c-1.6-.21-1.58,2.3,0,2.5a454.51,454.51,0,0,0,55.06,3.62A1.25,1.25,0,0,0,1337.08,387.35Z" transform="translate(0.21)"></path>
        <path class="cls-4" d="M1334.66,411.81h-49.81a1.25,1.25,0,0,0,0,2.5h49.81A1.25,1.25,0,0,0,1334.66,411.81Z" transform="translate(0.21)"></path>
        <path class="cls-4" d="M1335.63,442.27h-50.78a1.25,1.25,0,0,0,0,2.5h50.78A1.25,1.25,0,0,0,1335.63,442.27Z" transform="translate(0.21)"></path>
        <path class="cls-4" d="M1342.89,468.44a398.79,398.79,0,0,1-56.58,1.23c-1.61-.08-1.6,2.42,0,2.5a398.79,398.79,0,0,0,56.58-1.23C1344.47,470.79,1344.49,468.29,1342.89,468.44Z" transform="translate(0.21)"></path>
        <path class="cls-4" d="M1295,496.27c-1.59.16-1.6,2.66,0,2.5a169.56,169.56,0,0,1,46.21,1.66c1.58.27,2.25-2.14.67-2.42A172.48,172.48,0,0,0,1295,496.27Z" transform="translate(0.21)"></path>
        <path class="cls-4" d="M1079.29,493q1.65,9.29,2.71,18.67c.17,1.58,2.68,1.6,2.5,0a302.93,302.93,0,0,0-14.64-64.87q-3.1-9-6.77-17.73c-.61-1.46-3-.82-2.41.67A301.08,301.08,0,0,1,1079.29,493Z" transform="translate(0.21)"></path>
        <path class="cls-4" d="M414.19,535.51q-4.2-33.71-6-67.66c-.6-11.19-1-59.33-1.19-70.53l33.95-1.83-.1,140Z" transform="translate(0.21)"></path>
        <path class="cls-4" d="M552.82,330.5a1.43,1.43,0,0,1,.07-.43l-20.6-.36-19.44-.34c-1.14,0-3.4-.48-4.29.46-.72.76-.5,2.37-.5,3.31l0,9.69q.06,19.38.13,38.77a1.29,1.29,0,0,1-.05.35v.31l-9.44,145.48h53.1q.25-10.71.47-21.4.86-44,1-87.92T552.82,330.5ZM546,510.27H514.37V507H546Zm0-28.79H514.37v-3.29H546Zm0-30.59H514.37V447.6H546Zm0-35H514.37v-3.3H546Zm0-36.05H514.37v-3.29H546ZM546,348H514.37v-3.29H546Z" transform="translate(0.21)"></path>
        <path class="cls-4" d="M462.14,390.09c3.65-1.09,6.56,1.14,9.4,3.13,3.39,2.38,7.07,4.46,11.26,4.89A12.26,12.26,0,0,0,493,394.62c2.21-2.34-1.32-5.88-3.54-3.54s-5.8,2.47-8.79,1.49c-3.76-1.24-6.63-4-10-5.94a12.45,12.45,0,0,0-11.48-.72c-3.49,1.51-6.33,4.23-8.93,6.95-2.23,2.32,1.3,5.86,3.53,3.53S458.78,391.11,462.14,390.09Z" transform="translate(0.21)"></path>
        <path class="cls-4" d="M492.38,419.9c-.81,2.46-5.19,2.34-7.46,2-4.34-.63-7.75-2.78-11.3-5.19-3.34-2.27-7.06-4.32-11.24-3.76a10.77,10.77,0,0,0-8.74,7.51c-1,3.07,3.86,4.39,4.82,1.33a5.77,5.77,0,0,1,7.27-3.66c3.75,1.08,6.7,4.11,10.08,5.93,6,3.2,18.53,5.85,21.4-2.84C498.22,418.16,493.39,416.85,492.38,419.9Z" transform="translate(0.21)"></path>
        <path class="cls-4" d="M458.69,449.68c1.47-2.15,3-4,5.82-3.14,3,.9,5.26,3.63,7.77,5.41a21,21,0,0,0,17.9,2.77c3.07-.93,1.76-5.75-1.33-4.82a16.15,16.15,0,0,1-9,.14c-3.14-.87-5.46-2.74-7.95-4.77-2.7-2.2-5.91-4.27-9.56-3.94s-6,2.93-8,5.83a2.52,2.52,0,0,0,.89,3.42A2.56,2.56,0,0,0,458.69,449.68Z" transform="translate(0.21)"></path>
        <path class="cls-4" d="M458.44,475.6a2.08,2.08,0,0,1,1.66-1.92,4.53,4.53,0,0,1,3.73.9c3.1,2,4.93,5.48,7.84,7.72,5.6,4.31,13.53,3.87,19-.38a2.53,2.53,0,0,0,0-3.54,2.57,2.57,0,0,0-3.54,0,10.53,10.53,0,0,1-8.43,1.76c-3.64-.79-5.75-3.4-8.11-6.08s-5.81-5.64-9.8-5.52c-3.79.12-7.45,3.08-7.35,7.06C453.51,478.81,458.51,478.83,458.44,475.6Z" transform="translate(0.21)"></path>
        <path class="cls-4" d="M490.78,506.07a2.56,2.56,0,0,0-3.42.9c-1.43,1.87-5.28,1.42-7.28.65-3.41-1.31-6.05-4.12-8.94-6.26s-6.51-3.88-10.27-3.72c-3.21.13-6.9,1.44-8.36,4.54a2.57,2.57,0,0,0,.89,3.42,2.52,2.52,0,0,0,3.42-.9c1-2,4.09-2.41,6.34-1.85,3.56.89,6.25,3.52,9,5.71,3,2.38,6.32,4.33,10.24,4.66a10.26,10.26,0,0,0,9.22-3.73A2.51,2.51,0,0,0,490.78,506.07Z" transform="translate(0.21)"></path>
        <path class="cls-4" d="M105.19,410.76a1.13,1.13,0,0,0,.53.06c7.52-.78,15.13-1.63,22.7-1.43,4.66.13,9.3.63,14,.71,4.92.09,9.85,0,14.77-.22-.5,10.11-1.38,21.36-2.71,35.1-.81,10.48-1.22,28.85-1.57,45-.35,16-.68,31-1.34,36l-.06,1.7H121.63c-.57-8.1-1.26-16.19-1.95-24.28-1.62-18.78-3.37-37.59-3.64-56.46,0-1.21,0-2.43,0-3.64a7.58,7.58,0,0,0-.24-2.64,3.65,3.65,0,0,0-3-2.19c-2.62-.44-5.44.3-8,1.15Q105.51,425.24,105.19,410.76Z" transform="translate(0.21)"></path>
        <path class="cls-4" d="M22.75,419a6,6,0,1,0-6-6A6,6,0,0,0,22.75,419Z" transform="translate(0.21)"></path>
        <path class="cls-4" d="M22.75,437.43a6,6,0,1,0,6,6A6,6,0,0,0,22.75,437.43Z" transform="translate(0.21)"></path>
        <path class="cls-4" d="M22.75,467.93a6,6,0,1,0,6,6A6,6,0,0,0,22.75,467.93Z" transform="translate(0.21)"></path>
        <path class="cls-4" d="M22.75,498.42a6,6,0,1,0,6,6A6,6,0,0,0,22.75,498.42Z" transform="translate(0.21)"></path>
        <path class="cls-6" d="M79.88,263c.25-5.39,1.76-9.67,5.68-12.85,6.26-5.06,11.91-3.41,14.31,4.26.34,1.08.67,2.16,1.13,3.67,3.37-3.45,5.38-8.93,11.31-6.76,5.17,1.89,5.24,7,6.26,11.26.34.22.55.46.77.47,6.76.29,9.4,2.44,9.46,7.71.07,6-4.47,11.65-10,11.42-15.76-.66-31.51-1.73-47.26-2.7a3.83,3.83,0,0,1-2.38-1.08c-2.81-3.1-3.14-12.26-.68-15.67C71.32,258.68,74.72,258.62,79.88,263Z" transform="translate(0.21)"></path>
        <path class="cls-7" d="M87.28,263.57a18.07,18.07,0,0,1,.06-3.82,5.24,5.24,0,0,1,1.26-2.81,2.85,2.85,0,0,1,2.5-1,13.87,13.87,0,0,1,1.92.38l2.15.49a1.27,1.27,0,0,0,1.53-.88,1.25,1.25,0,0,0-.87-1.53,25.21,25.21,0,0,0-5-1,5.41,5.41,0,0,0-3.9,1.64c-2.23,2.27-2.28,5.52-2.14,8.5A1.28,1.28,0,0,0,86,264.82a1.25,1.25,0,0,0,1.25-1.25Z" transform="translate(0.21)"></path>
        <path class="cls-7" d="M71.8,265.25c-.83,2.3-1.64,4.92-.64,7.31a4.85,4.85,0,0,0,5.25,3.15,1.25,1.25,0,0,0,.87-1.53,1.28,1.28,0,0,0-1.54-.88c.18,0,0,0-.09,0h-.24c-.14,0,.13,0-.09,0l-.23-.06s-.31-.12-.19-.06-.11-.06-.13-.07l-.26-.16c-.05,0-.15-.11-.05,0a5,5,0,0,1-.41-.39l-.21-.24c.08.11,0,0,0-.06a3.18,3.18,0,0,1-.45-.91c-.54-1.77.25-3.73.85-5.41a1.25,1.25,0,0,0-.87-1.53,1.28,1.28,0,0,0-1.54.87Z" transform="translate(0.21)"></path>
        <path class="cls-7" d="M105.53,260.9l.55.05.33,0,.16,0,.17,0,.27.05a5.6,5.6,0,0,1,.59.12,9.71,9.71,0,0,1,1.05.31l0,0c.08,0,.17.07.25.12a4.91,4.91,0,0,1,.5.28l.2.14c-.13-.09-.09-.07,0,0a3.61,3.61,0,0,1,.35.33l.16.18c.21.24-.13-.2,0,.06s.17.27.25.41l.11.21c.07.14-.07-.21,0,0s.09.3.13.45,0-.26,0,0a1.93,1.93,0,0,1,0,.24s0,.23,0,.23l0-.14c0,.06,0,.12,0,.18a1.25,1.25,0,1,0,2.41.67,5,5,0,0,0-2.17-5,10.47,10.47,0,0,0-5.42-1.54,1.26,1.26,0,0,0-1.25,1.25,1.28,1.28,0,0,0,1.25,1.25Z" transform="translate(0.21)"></path>
        <path class="cls-6" d="M886.56,270.11c.35-7.47,2.44-13.39,7.88-17.8,8.67-7,16.5-4.74,19.83,5.89.47,1.5.92,3,1.56,5.1,4.67-4.78,7.46-12.38,15.68-9.37,7.17,2.62,7.25,9.7,8.68,15.6.47.3.76.64,1,.65,9.37.4,13,3.38,13.13,10.69.09,8.31-6.2,16.15-13.92,15.83-21.85-.91-43.68-2.4-65.5-3.75a5.26,5.26,0,0,1-3.3-1.49c-3.9-4.3-4.35-17-.95-21.72C874.7,264.19,879.41,264.11,886.56,270.11Z" transform="translate(0.21)"></path>
        <path class="cls-7" d="M896.34,271c-.16-3.2-.41-7,2-9.53a4.54,4.54,0,0,1,3.81-1.52,19.08,19.08,0,0,1,2.79.54l3,.67c1.57.36,2.24-2.05.67-2.41l-3.47-.78a16.5,16.5,0,0,0-3.34-.54,7,7,0,0,0-5.07,2.14c-3,3-3,7.44-2.82,11.43.08,1.6,2.58,1.61,2.5,0Z" transform="translate(0.21)"></path>
        <path class="cls-7" d="M875.83,273.43c-1.11,3.08-2.26,6.62-.92,9.81,1.12,2.67,3.74,4.64,6.71,4.1a1.26,1.26,0,0,0,.87-1.54,1.28,1.28,0,0,0-1.54-.87c-1.82.33-3.42-1.49-3.9-3.09-.77-2.56.33-5.35,1.19-7.75a1.25,1.25,0,1,0-2.41-.66Z" transform="translate(0.21)"></path>
        <path class="cls-7" d="M922.11,266.79a12.18,12.18,0,0,1,5.68,1.5,5,5,0,0,1,1.6,1.74,3.23,3.23,0,0,1,.37,2.07,1.25,1.25,0,0,0,2.41.67,6.43,6.43,0,0,0-2.79-6.41c-2.07-1.53-4.78-1.85-7.27-2.07a1.26,1.26,0,0,0-1.25,1.25,1.28,1.28,0,0,0,1.25,1.25Z" transform="translate(0.21)"></path>
        <path class="cls-4" d="M97.14,336.38c-1.06-1.56-1.94-3.23-2.94-4.92l-1.16.78-.64-.81a3.53,3.53,0,0,0-.31.2.87.87,0,0,0-.16.23,6.5,6.5,0,0,1-5.57,3.6,13.69,13.69,0,0,0-3.58.49c-3.35,1.17-6.79,1-10.22,1-2.5,0-5,.23-7.49.21a12.28,12.28,0,0,1-4.2-.6,11,11,0,0,1-5.7-5.32A14.19,14.19,0,0,0,53,328.07a7.07,7.07,0,0,0-2.62-1.45c-.72-.27-1.81-.37-1.89.69-.05.52.79,1.14,1.28,1.67.13.14.43.14.66.18a2.9,2.9,0,0,1,2.29,2.16,11.23,11.23,0,0,0,4.76,6,20.82,20.82,0,0,1,2.64,2.06,2.28,2.28,0,0,1,.63,2.77,5,5,0,0,0-.37,2.83,5.94,5.94,0,0,1-2.19,6.11,5.54,5.54,0,0,0-1.9,6.07c.06.27.07.55.11.83.33,2.29.77,2.57,3.34,1.84a13.9,13.9,0,0,0-1.07-1.68,2.81,2.81,0,0,1,.72-4.12,23.52,23.52,0,0,0,2.94-1.86c1-.82,1.95-1.79,2.92-2.7l.41.06a14.25,14.25,0,0,1,0,3.92,2.65,2.65,0,0,0,.84,3c.68.64,1.4,1.23,2.09,1.86a2.93,2.93,0,0,0,3.09.74c.43-.16,1.12-.54,1.13-.82,0-.79-.54-1.16-1.42-1.13a2.55,2.55,0,0,1-2.42-3.87c.86-1.63,1.84-3.19,2.76-4.77,1.35-.06,2.7-.06,4-.18a27.35,27.35,0,0,0,4.14-.6c1.55-.38,2.38.34,3,1.57a12.22,12.22,0,0,1,.62,1.55c.49,1.57.92,3.17,1.46,4.73.63,1.86,2.31,2.22,3.91.83-.34-1.37-2.69-.84-2.58-2.81a22,22,0,0,0-.64-4.33c1.13.47,2,.89,2.93,1.2a4.4,4.4,0,0,1,3,2.47A9.73,9.73,0,0,0,93,355.38c.35.42,1.06.54,1.61.8.12-.49.43-1,.34-1.48a5.35,5.35,0,0,0-.87-2c-1.25-1.71-2.28-3.61-4.17-4.82a1.57,1.57,0,0,1-.71-2.26,41.17,41.17,0,0,0,2.29-4.3,2.89,2.89,0,0,1,2.91-1.93,6.78,6.78,0,0,0,2.06-.27C97.69,338.68,97.86,337.43,97.14,336.38Zm-32.65,9.79a1.14,1.14,0,0,1-.25-2.26,1.14,1.14,0,1,1,.25,2.26Zm2.58-5.09a1.14,1.14,0,0,1-1.26-1,1.14,1.14,0,1,1,1.26,1Zm5.25,4.34a1.14,1.14,0,1,1,1-1.25A1.14,1.14,0,0,1,72.32,345.42ZM76,340.8a1.14,1.14,0,1,1,1-1.25A1.13,1.13,0,0,1,76,340.8ZM78.78,346a1.14,1.14,0,1,1,1-1.25A1.14,1.14,0,0,1,78.78,346Zm2.54-6.94a1.14,1.14,0,1,1,1.26,1A1.14,1.14,0,0,1,81.32,339.08Zm3,7.29a1.14,1.14,0,1,1-.25-2.26,1.14,1.14,0,0,1,1.26,1A1.15,1.15,0,0,1,84.28,346.37Zm4.47-4.9a1.14,1.14,0,1,1,1-1.26A1.15,1.15,0,0,1,88.75,341.47Z" transform="translate(0.21)"></path>
      </g>
      <path class="cls-2" d="M1168,396.51a15.26,15.26,0,0,1,13.74-3.68c4,1,7.53,3.56,11.54,4.67,9.44,2.61,19.31-3.47,29-2.33,7.24.85,14.64,5.6,21.28,2.61" transform="translate(0.21)"></path>
      <path class="cls-8" d="M1168.4,397a14.73,14.73,0,0,1,14.37-3.17c2.62.84,5,2.26,7.53,3.33a20.46,20.46,0,0,0,7,1.65c5,.24,10-1.23,14.89-2.21a36.35,36.35,0,0,1,8-.89,29.61,29.61,0,0,1,7.68,1.39c5.21,1.5,10.7,3.54,16,1.26.74-.31.1-1.39-.63-1.07-5.11,2.19-10.67-.17-15.66-1.57a29.49,29.49,0,0,0-7.39-1.26,36.18,36.18,0,0,0-7.48.77c-5.21,1-10.44,2.67-15.8,2.31-5.52-.38-9.79-4-15-5.26a16,16,0,0,0-14.34,3.84c-.6.54.29,1.43.88.88Z" transform="translate(0.21)"></path>
      <path class="cls-2" d="M1212,369.64c2.15-2.89,6.3-3.44,9.85-2.85s7,2.06,10.54,2.28c4.42.26,8.7-1.39,12.81-3.06" transform="translate(0.21)"></path>
      <path class="cls-8" d="M1212.44,370.08c3.76-4.79,10.52-2.41,15.36-1.18a20.75,20.75,0,0,0,8.37.59,40.62,40.62,0,0,0,9.18-2.88c.74-.29.42-1.5-.33-1.2a38.22,38.22,0,0,1-9.55,2.92c-3.45.43-6.65-.45-10-1.33-4.6-1.24-10.61-2.08-14,2.2-.49.62.39,1.51.89.88Z" transform="translate(0.21)"></path>
      <path class="cls-2" d="M1209.21,341.81c2.73-3.49,7.86-3.91,12.25-3.27s8.83,2,13.16,1" transform="translate(0.21)"></path>
      <path class="cls-8" d="M1209.65,342.26c2.6-3.17,6.93-3.62,10.75-3.23,4.84.5,9.49,2.17,14.38,1.17.79-.17.46-1.37-.33-1.21-5.22,1.07-10.28-1.11-15.47-1.31-3.73-.15-7.74.67-10.21,3.69-.5.62.38,1.51.88.89Z" transform="translate(0.21)"></path>
      <path class="cls-2" d="M1213.08,314.47c.72-2.73,3.75-4.29,6.57-4.38s5.54.9,8.27,1.62,5.73,1.13,8.29-.06" transform="translate(0.21)"></path>
      <path class="cls-8" d="M1213.68,314.64c1.36-4.5,7-4.22,10.59-3.29,4,1,8.18,2.61,12.26.84.73-.32.1-1.4-.64-1.08-4.82,2.1-9.93-1.18-14.77-1.6-3.51-.31-7.54,1.14-8.64,4.79a.62.62,0,0,0,1.2.34Z" transform="translate(0.21)"></path>
      <path class="cls-2" d="M1171.44,421.05a33.73,33.73,0,0,0,20.54,1.87c3-.67,5.86-1.75,8.89-2.07,5.35-.56,10.64,1.27,15.67,3.19,3.57,1.37,7.29,2.81,11.11,2.47,5.38-.48,9.78-4.36,14.82-6.32" transform="translate(0.21)"></path>
      <path class="cls-8" d="M1171.28,421.66a34.47,34.47,0,0,0,14.07,2.69,33.89,33.89,0,0,0,7-.88c2.45-.57,4.83-1.4,7.31-1.82,5.28-.91,10.49.68,15.39,2.5,4.47,1.67,9.06,3.69,13.94,2.8s9-4.31,13.62-6.16c.74-.29.42-1.5-.33-1.2-4,1.6-7.55,4.34-11.69,5.67-5.06,1.62-9.83-.28-14.56-2.07-4.47-1.69-9.18-3.26-14-3.05s-9.38,2.37-14.22,2.82a33.63,33.63,0,0,1-16.19-2.51c-.74-.31-1.06.9-.33,1.21Z" transform="translate(0.21)"></path>
      <path class="cls-2" d="M1186.5,450.45c1.41-2.07,4.08-2.86,6.57-3.12a25.32,25.32,0,0,1,13.21,2.16c5,2.32,9.91,6.41,15.38,5.49,3.86-.65,6.85-3.69,10.49-5.13,4.27-1.69,9.14-1.05,13.51.38" transform="translate(0.21)"></path>
      <path class="cls-8" d="M1187,450.77c2.4-3.3,7.82-3.21,11.44-2.81,4.43.49,8.23,2.37,12.07,4.49,3.21,1.77,6.73,3.62,10.51,3.24s6.5-2.79,9.63-4.46c4.67-2.51,9.92-2,14.8-.4.77.25,1.1-1,.33-1.21-4.16-1.32-8.75-2-13-.67-3.84,1.23-6.81,4.4-10.76,5.31-4.44,1-8.62-1.65-12.34-3.7a29.39,29.39,0,0,0-12.14-3.93c-4-.29-9.06,0-11.62,3.51-.48.65.61,1.27,1.08.63Z" transform="translate(0.21)"></path>
      <path class="cls-2" d="M1186.5,506c1.41-2.07,4.08-2.86,6.57-3.12a25.32,25.32,0,0,1,13.21,2.16c5,2.32,9.91,6.41,15.38,5.49,3.86-.65,6.85-3.69,10.49-5.13,4.27-1.69,9.14-1,13.51.38" transform="translate(0.21)"></path>
      <path class="cls-8" d="M1187,506.32c2.4-3.3,7.82-3.21,11.44-2.81,4.43.49,8.23,2.37,12.07,4.49,3.21,1.77,6.73,3.62,10.51,3.24s6.5-2.79,9.63-4.47c4.67-2.5,9.92-1.95,14.8-.39.77.25,1.1-1,.33-1.21-4.16-1.32-8.75-2-13-.67-3.84,1.23-6.81,4.4-10.76,5.31-4.44,1-8.62-1.65-12.34-3.7a29.39,29.39,0,0,0-12.14-3.93c-4-.29-9.06,0-11.62,3.51-.48.65.61,1.27,1.08.63Z" transform="translate(0.21)"></path>
      <path class="cls-2" d="M1186.68,475.43c4.7.48,9.31-2.5,14-1.7,5.29.91,8.58,6.24,13.31,8.78,7.4,4,16.43.44,24-3.18,2.61-1.24,5.29-2.52,8.18-2.65s6,1.2,7.15,3.86" transform="translate(0.21)"></path>
      <path class="cls-8" d="M1186.68,476.06c4.89.39,9.63-2.8,14.48-1.58,4.08,1,6.9,4.59,10.13,7,8,6.07,18,2.58,26.23-1.28,2.82-1.33,5.76-2.91,9-2.93a6.65,6.65,0,0,1,6.27,3.56c.33.73,1.41.1,1.08-.63-1.91-4.16-7-4.76-11-3.6a54.07,54.07,0,0,0-7.13,3.06,53.36,53.36,0,0,1-7.73,2.92c-5,1.4-10.42,1.6-14.93-1.36-3.51-2.31-6.17-5.85-10.12-7.49-5.49-2.27-10.73,1.49-16.27,1.05-.8-.07-.8,1.18,0,1.25Z" transform="translate(0.21)"></path>
      <path class="cls-9" d="M1289.42,96.33c-15.08,2-7.33,21.32-5.67,23.86a5.62,5.62,0,0,0,.38.49,51.77,51.77,0,0,0-1.69,11.9c0,1.15,0,2.3,0,3.45a27.77,27.77,0,0,0,0,4.65c.21,1.82,1.28,3.21,1.7,4.94.83,3.45.36,7.23-.14,10.68a98.36,98.36,0,0,1-2.12,10.35c-.07-.36-.15-.73-.22-1.09-.75-4.56-1.28-9.16-1.75-13.75-1.15-11.17-1.92-22.41-2.16-33.64-.08-3.51.43-12.31.21-12.66,0-.24,0-.47,0-.71a2.76,2.76,0,0,0,.81-1.2l2.4-4.27c3-5.3,3.47-26.56-9.69-18.94s1.46,22.51,4,24.21l.28.17c-.87,9.34-.18,19,.38,28.29.25,4.06.52,8.12.86,12.19-1.47-3.33-3.74-6.26-5.1-9.64-1.06-2.62-2.64-8.92-2.71-9-.12-.6-.2-1.2-.29-1.8.37-.45,2.83-5.29,2.83-5.29,2.88-5.36,2.87-26.64-10.11-18.72s2,22.47,4.51,24.11a3,3,0,0,0,.58.31,54.52,54.52,0,0,0,2.41,9.34c1.38,4,3.78,7.34,5.61,11.1a35.77,35.77,0,0,1,2.45,8.31c.69,3.35,1.26,6.73,1.9,10.09-.51-1.16-1-2.32-1.52-3.49-1.26-2.92-2.46-5.88-3.89-8.72a18.42,18.42,0,0,0-1.6-2.75c-1.47-2-3.55-3.39-5.36-5-2.53-2.28-6.64-8.85-6.67-8.87-.31-.58-.61-1.17-.9-1.75a2.67,2.67,0,0,0,.13-.87l.79-4.43c1-5.49-5.06-24-14.14-13.45s8.09,19,10.78,19.75a3.76,3.76,0,0,0,.53.1,44.57,44.57,0,0,0,6.25,9.38c2.5,2.88,6,4.73,7.83,8.17,3.28,6.21,5.49,12.95,8.76,19.17.11.22.23.44.35.66-.7,2.41-4.17,13.82-5,16.19-.48,1.35,1.58,2.22,2,.86.6-1.7,3.91-12.43,4.45-14.16a.63.63,0,0,0,.24.16c1.06,1.69,10,11.89,11.56,13.07a1.12,1.12,0,0,0,1.36-1.77c-1.54-1.16-10.43-11.42-11.44-13.13-.25-.62-.47-1.25-.67-1.89a124.5,124.5,0,0,0,2.84-12.27,44.54,44.54,0,0,0,.85-11.46,12.56,12.56,0,0,0-1-4.18,9.31,9.31,0,0,1-1.09-3.18,44.87,44.87,0,0,1,.11-4.78c.06-3.86,1.42-13.55,1.57-14.11a2.87,2.87,0,0,0,1-.71l3.86-3C1295.87,113.8,1304.49,94.36,1289.42,96.33Z" transform="translate(0.21)"></path>
      <g id="EB2b7x">
        <path class="cls-9" d="M1244.25,174.89a5,5,0,0,1,2.78-1.52,11.71,11.71,0,0,0,4.57-2,6.89,6.89,0,0,0,.88-1.17,2.58,2.58,0,0,1,.49-.66,8.6,8.6,0,0,1,8.75-1.07c1.47.58,2,1.9,2.41,3.32a29.29,29.29,0,0,0,2.36,6.59,7.42,7.42,0,0,0,6.39,3.85,23.15,23.15,0,0,0,7-.53c3.72-.82,7.42-1.75,11.14-2.59a28.82,28.82,0,0,1,7.74-1,11.82,11.82,0,0,1,4.48,1.22c2.16,1,4.27,2.14,6.47,3.06a16.21,16.21,0,0,0,9.15,1.18c.36-.06.74-.08,1.1-.12l.1.2a5.46,5.46,0,0,1-.79.57,12.93,12.93,0,0,1-4.09,1.15,17.59,17.59,0,0,1-9-1.26l-2.71-1.1c.41,1,.87,2,1.25,3s.62,2,1,3a6.66,6.66,0,0,0,.65,1.2,2.29,2.29,0,0,0,2,1.25c1.23.06,1.58.49,1.4,1.7-.29,2-.64,4-1,6a4.75,4.75,0,0,1-2.6,3.64l-1.91.29c-.17,0-.35,0-.52,0-.32-.06-.65-.09-.67-.54a2.16,2.16,0,0,1,1.61-2.23,1,1,0,0,0,.75-.68c.66-1.43.24-2.84-.1-4.24a1.15,1.15,0,0,0-1.24-.92c-.68,0-1.37,0-2,.1a9.91,9.91,0,0,1-6.29-1.31,11.29,11.29,0,0,0-2.65-1.21c-1.85-.5-3.64.1-5.36.66a38.3,38.3,0,0,0-5.62,2.34,66.14,66.14,0,0,1-12.68,5.16c-.08.54-.14,1.07-.24,1.6-.29,1.67-1,3.25-1,5a1.86,1.86,0,0,1-1.56,1.87l-2.08.56-1,.15-.42-.05c-.86,0-1.22-.56-.75-1.25a3.31,3.31,0,0,1,1.34-1.21,1.3,1.3,0,0,0,.93-1.31,18.51,18.51,0,0,0-.2-2.21,5.17,5.17,0,0,0-2.73-4,24.38,24.38,0,0,1-2.89-2,7.12,7.12,0,0,1-2.64-4.18,14.37,14.37,0,0,1,0-5.19,13.55,13.55,0,0,0-.7-7.43,2.92,2.92,0,0,0-2.93-2.13c-1.18,0-2.36,0-3.54,0a3.78,3.78,0,0,1-3.42-1.48c-.39-.56-.85-1.05-1.28-1.57Z" transform="translate(0.21)"></path>
      </g>
      <path class="cls-10" d="M1275,99.68a14.51,14.51,0,0,1-2.68-4.38c-.65-1.57-1.58-3.43-1.52-5.15a5.82,5.82,0,0,1,1.35-3.93c.79-.8,1.95-2,3.11-2.21,1.4-.26,2.58,1.46,3.25,2.44a6.79,6.79,0,0,1,1.33,4.63,6.61,6.61,0,0,1-1.51,3.89c-.51.59-1,.48-1.69.56a2,2,0,0,0-.35,0c-.37.12,0,0,0,0s-.14-.13-.17-.18a12.46,12.46,0,0,1-1.37-2.73c-.23-.69-.76-2-.26-2.72s-.6-1.27-1.08-.63c-.63.86-.28,2.26,0,3.19A10.57,10.57,0,0,0,1275,96a1.9,1.9,0,0,0,.9.78,4.79,4.79,0,0,0,1.72-.09c1.5-.14,2.49-1.8,2.94-3.13a8.74,8.74,0,0,0,0-6.15,9.86,9.86,0,0,0-3.22-4.09c-1.49-1-2.91-.55-4.25.44a7.28,7.28,0,0,0-3.1,3.76,9.64,9.64,0,0,0-.4,3.2,13.68,13.68,0,0,0,1,3.59,18.08,18.08,0,0,0,3.51,6.22c.55.59,1.43-.29.88-.88Z" transform="translate(0.21)"></path>
      <path class="cls-10" d="M1285,108c-.4-2.45,1.23-5.18,3.09-6.67a5.23,5.23,0,0,1,3.55-1.21c1.43.09,2.37.88,2.19,2.36a14.37,14.37,0,0,1-1.23,3.7c-.55,1.31-1.16,2.59-1.79,3.86a10.06,10.06,0,0,1-1.95,3.18,2.21,2.21,0,0,1-1.87.63,1.16,1.16,0,0,1-.92-1.34.62.62,0,0,0-1.2-.33,2.37,2.37,0,0,0,1.26,2.67,3.17,3.17,0,0,0,3.34-.52,8.59,8.59,0,0,0,2.17-3.16c.71-1.42,1.39-2.84,2-4.3.83-2,2.54-5.27.54-7.07s-5.19-.83-7,.64c-2.24,1.83-3.89,5-3.4,7.89.13.79,1.34.46,1.2-.33Z" transform="translate(0.21)"></path>
      <path class="cls-10" d="M1261.34,111.46a5.29,5.29,0,0,1,1.87-5.88c1.07-.74,2.57-1,3.44.16a8.82,8.82,0,0,1,1.29,3.67,19.77,19.77,0,0,1,.22,4.14,20.54,20.54,0,0,1-.34,3.84,2.09,2.09,0,0,1-.61,1.23c-.56.41-1.18-.07-1.56-.49a7.13,7.13,0,0,1-1.55-3.83c-.09-.79-1.34-.79-1.25,0,.23,2,1.39,5.83,4,5.73s2.42-4,2.52-5.68a17.4,17.4,0,0,0-1.22-8.48,3.46,3.46,0,0,0-2.65-2.17,4.58,4.58,0,0,0-3.3,1.08,6.57,6.57,0,0,0-2.07,7c.25.77,1.46.44,1.21-.33Z" transform="translate(0.21)"></path>
      <path class="cls-10" d="M1248.17,122.12a4.2,4.2,0,0,1,2.12-4.25,2.76,2.76,0,0,1,2.74,0,6.33,6.33,0,0,1,1.84,2.11,10,10,0,0,1,1.45,5.28c0,1.48-.27,4.41-2.44,3.85a3.62,3.62,0,0,1-2.16-2.12c-.41-.93-.37-2.34.78-2.7.77-.24.44-1.45-.33-1.21a2.87,2.87,0,0,0-2,2.54,4.86,4.86,0,0,0,1.44,3.5,3.62,3.62,0,0,0,3.14,1.26,2.89,2.89,0,0,0,2.38-2.32,11,11,0,0,0-.55-7.38c-.93-2.16-2.73-4.73-5.39-4.39a5.28,5.28,0,0,0-4.32,5.83c.1.78,1.35.79,1.25,0Z" transform="translate(0.21)"></path>
      <path class="cls-10" d="M1255.82,172.79a.92.92,0,0,0,.7-.4,1.16,1.16,0,0,0,.25-.5.61.61,0,0,0,0-.14.3.3,0,0,0,0-.1c-.22-.57-.54-.91-.87-1s-.59.4-.85.83l0,.07,0,.05a.46.46,0,0,0,0,.26l0,.08,0,.07q.27.66.72.72Zm.34-.49a.6.6,0,0,1-.19.08,1.33,1.33,0,0,0,.12-.52,1.26,1.26,0,0,0-.22-.77h0c.26,0,.51.29.71.72a.82.82,0,0,1-.14.23A1.06,1.06,0,0,1,1256.16,172.3Z" transform="translate(0.21)"></path>
      <path class="cls-10" d="M1264.21,188.52l.28,2.24a.26.26,0,0,0,.25.25c.12,0,.27-.12.25-.25l-.28-2.24a.25.25,0,0,0-.25-.25.26.26,0,0,0-.25.25Z" transform="translate(0.21)"></path>
      <path class="cls-10" d="M1295.07,183.31l-1.26,1.87a.27.27,0,0,0,.09.35.26.26,0,0,0,.34-.09l1.26-1.87a.25.25,0,1,0-.43-.26Z" transform="translate(0.21)"></path>
      <path class="cls-10" d="M1273.46,188.07a2.5,2.5,0,0,1,1.77,1.32.25.25,0,0,0,.34.09.26.26,0,0,0,.09-.34,3,3,0,0,0-2.07-1.56.25.25,0,0,0-.13.49Z" transform="translate(0.21)"></path>
      <path class="cls-10" d="M1260.84,180.72l-.67,2.47a.25.25,0,0,0,.48.13l.67-2.47a.25.25,0,0,0-.48-.13Z" transform="translate(0.21)"></path>
      <path class="cls-10" d="M1283.6,186.67a1.28,1.28,0,0,1,.3.17l.08,0h0l0,0,.13.12.11.12,0,0h0l.06.07c.06.1.12.2.17.3a.23.23,0,0,0,.15.12.21.21,0,0,0,.19,0,.26.26,0,0,0,.09-.34,2.22,2.22,0,0,0-1.08-1.08.31.31,0,0,0-.19,0,.28.28,0,0,0-.15.11.26.26,0,0,0,.09.35Z" transform="translate(0.21)"></path>
      <path class="cls-4" d="M864.53,357.31a28.89,28.89,0,0,1,1.09,3.71c.08.48-.48,1.06-.75,1.59-.46-.45-1.14-.83-1.33-1.37-.45-1.35-.36-1.38-1.76-1.41.27,1.78.65,3.53.77,5.29a64.05,64.05,0,0,1,.14,7.33,7.81,7.81,0,0,1-1.1,3.54c-2,3.18-1.79,6.53-1.2,10a1.91,1.91,0,0,0,1.66,1.72,3.52,3.52,0,0,1,1.74,1.3c.17.22-.25,1.32-.44,1.33-1.46.06-2.68.8-4,1.18-2.64.76-3.58.12-4.8-2.36l-.49-1-6.81.56c.08.63.49,1.65.17,2a3.19,3.19,0,0,1-2.26.82c-3.32-.17-6.63-.62-10-.73a14.55,14.55,0,0,0-5,.66c-3.72,1.22-9.21-.08-11.76-3-2-2.28-1.67-4.93.68-5.8,1.37-.51,2-.18,2,1.27a2.32,2.32,0,0,0,2,2.45,48.77,48.77,0,0,0,7.44.48c.44,0,1.19-1.26,1.24-2a13.77,13.77,0,0,1,3.73-8.82c3.69-3.95,7.43-7.84,11.14-11.76a4.3,4.3,0,0,0,.86-1.19c2-4.73,3.61-9.56,3.8-14.77a17.13,17.13,0,0,1,.9-4.75c.4-1.2,1.22-1.2,1.85-.1s.95,2.19,1.47,3.27c.18.37.56.94.8.92a1.64,1.64,0,0,0,1-.8c.65-1.11,1.2-2.29,1.83-3.54,1.65,1,1.38,2.56,1.5,3.88.1,1.05,0,2.05,1.1,2.68a1.09,1.09,0,0,1,.51.8c-.14,1.64,1.11,2,2.18,2.6s2.35,1.34,2.37,2.07A2,2,0,0,1,864.53,357.31Z" transform="translate(0.21)"></path>
      <path class="cls-4" d="M623.63,368c-.71.24-1.36-.34-1.75-.12a4.41,4.41,0,0,1-3.1,0,7.38,7.38,0,0,0,2.71-1.11,2.56,2.56,0,0,0,.9-3.42,2.52,2.52,0,0,0-3.42-.9l-.48.3-.21.11-.44.14-.2.05-.42,0-.44,0-.32-.06a4.84,4.84,0,0,1-.51-.14,2.3,2.3,0,0,1-.65-.27c-.33-.17-.65-.36-1-.56a11.15,11.15,0,0,1-1.68-1.33,21.16,21.16,0,0,0-3-2.49,16.53,16.53,0,0,0-.6-2.25c-.81-2.43-2.12-4.69-3.16-7.06-.53-1.22-.94-2.5-1.39-3.76a36.5,36.5,0,0,0-1.79-5c-1.47-2.77-3.19-5.41-4.83-8.09-1-1.72-2.16-3.39-3.2-5.1a3.2,3.2,0,0,1-.11-2.66c.43.56.74,1.12,1.23.44a23.49,23.49,0,0,0,1.54-2.29c.53-.94,1-2,.19-2.95a7,7,0,0,0-1.56-1.23c-1.2-.82-2.39-1.63-3.63-2.38s-2.87-.49-4.32-.41a4.15,4.15,0,0,0-2.1.78,49.36,49.36,0,0,0-3.84,3.26,1.84,1.84,0,0,0-.32,2.54,4.71,4.71,0,0,1,1,2.73c0,.19.2.53.32.54a.78.78,0,0,0,.63-.32,11,11,0,0,0,.57-1.61,7.63,7.63,0,0,0,.12-1l.35-.05a19,19,0,0,1,.58,2.09c.12.72.06,1.47.16,2.2s.35,1.69.44,2.55c.27,2.44-.85,4.63-1.36,6.93a13.62,13.62,0,0,0-.43,5.82,31.27,31.27,0,0,1,.66,4.6c.06,1,.06,2,0,3.05,0,0-.76,3.67.12,4.66h0l.39.84a8,8,0,0,0-1,2c-.3,1.94-.4,3.92-.65,5.87a16.37,16.37,0,0,1-.64,2.64,3,3,0,0,1-1.53,1.68,3.56,3.56,0,0,0-1.12,1.13c-.44.69-.17,1.08.67,1.09s1.42,0,2.12,0a1.57,1.57,0,0,0,1.65-.9,1.37,1.37,0,0,1,.9-.69c1.44-.09,2.89-.06,4.33-.09.45,0,.7.07.65.65-.07.87.48.18,1.38.16.3,0,.37-.5.64-.33.83.49,2.58,1.27,2.65.32,0-.48.21-.69.69-.71s.74-.18,1.12-.19a1.57,1.57,0,0,1,.92.16,3.09,3.09,0,0,0,3.17.21,1.11,1.11,0,0,1,1.6.4,1.1,1.1,0,0,0,.69.48,17.24,17.24,0,0,0,2.87.08c1-.08,1.76-.74,2.84-.65,3,.25,5.92.36,8.89.45,1.6.05,6.1.63,7.17-.54C625.65,368.17,623.52,368.51,623.63,368ZM592,365.12a1.5,1.5,0,0,1-.92.39c-1.41,0-2.83,0-4.24,0-.88,0-1-.32-.57-1.09a3,3,0,0,0,.25-.73c.47-2.08.94-4.15,1.4-6.23.11-.52.2-1.06.3-1.59l.16,0a15.39,15.39,0,0,0,1.12,2.78,33.63,33.63,0,0,0,2.47,3.16A4,4,0,0,1,592,365.12Zm.11-39.31a2,2,0,0,1-.83.16,3.51,3.51,0,0,1-.55-.05,1.27,1.27,0,0,1-.66-.32,1,1,0,0,1-.15.13,1.93,1.93,0,0,1-1,.24l-.32,0a1.15,1.15,0,0,1-1.05-.61.14.14,0,0,1,.08-.17.15.15,0,0,1,.19.08.62.62,0,0,0,.36.32,2.19,2.19,0,0,0,1.12.08c.29-.06.62-.17.62-.38h0v-.46l-.12-.07c-.17-.14-.32-.31-.49-.46a1.94,1.94,0,0,1-.21-.2.88.88,0,0,1-.19-.49.8.8,0,0,1,.55-.76.76.76,0,0,1,.62.09.83.83,0,0,1,.54-.11.84.84,0,0,1,.6.57.49.49,0,0,1,0,.17.7.7,0,0,1-.09.42,1.31,1.31,0,0,1-.24.28l-.25.24c-.09.08-.2.16-.29.25a.28.28,0,0,1-.15.08v0c0,.15,0,.29,0,.42h0c0,.09.06.17.2.24a1.85,1.85,0,0,0,1.06.16c.26,0,.71-.11.83-.42a.16.16,0,0,1,.19-.08.13.13,0,0,1,.08.17A.86.86,0,0,1,592.09,325.81Zm16.35,41.92c-.82-.09-.53-1.75-.29-2.47l.54-1.52a28.49,28.49,0,0,0,2.77,2.36,11.08,11.08,0,0,0,2.35,1.26A28.6,28.6,0,0,1,608.44,367.73Z" transform="translate(0.21)"></path>
      <path class="cls-4" d="M448.55,202.69c-2.07-2.11-5.49-2.66-8.29-2.89a28.67,28.67,0,0,0-11.38,1.32l0,0c-5.74,1.87-8.53,7.22-9.21,12.93-.62,5.21-.23,12.13,5.15,14.74,8.88,4.29,20.38-.53,24.92-8.91,2.87-5.29,3-12.26-.95-17A1.12,1.12,0,0,0,448.55,202.69Z" transform="translate(0.21)"></path>
      <path class="cls-4" d="M423.37,190.6h0c-33.18,6.17-18.53,45.1-3.92,50.1C477.75,260.64,480.8,179.3,423.37,190.6Zm29,30.23c-5.42,10-19.11,15.72-29.68,10.6-6.41-3.1-6.88-11.34-6.14-17.55.81-6.8,4.14-13.17,11-15.4l0,0a34.07,34.07,0,0,1,13.56-1.57c3.33.27,7.41.93,9.87,3.44a1.6,1.6,0,0,1,.24.22C456,206.23,455.81,214.53,452.4,220.83Z" transform="translate(0.21)"></path>
      <path class="cls-4" d="M428.8,246.75a27.22,27.22,0,0,0-4.59,9.86c-.87,3.73-.46,7.73-1.9,11.32-.6,1.5,1.82,2.14,2.41.67,1.4-3.5,1-7.35,1.83-11A25,25,0,0,1,431,248c1-1.3-1.22-2.55-2.16-1.27Z" transform="translate(0.21)"></path>
      <path class="cls-4" d="M435.79,184.15A48.69,48.69,0,0,1,438,166.9c.48-1.54-1.93-2.2-2.42-.67a51.05,51.05,0,0,0-2.26,17.92c.09,1.6,2.59,1.61,2.5,0Z" transform="translate(0.21)"></path>
      <path class="cls-4" d="M394.66,213.69,377.07,215c-1.59.13-1.6,2.63,0,2.5l17.59-1.33c1.59-.12,1.61-2.62,0-2.5Z" transform="translate(0.21)"></path>
      <path class="cls-4" d="M472.66,220.34a20.36,20.36,0,0,1,9.16-1.08c2.84.27,5.8.64,8.36-.93,1.37-.84.11-3-1.26-2.16-2.37,1.45-5.35.71-7.95.51a21.46,21.46,0,0,0-9,1.25c-1.49.55-.85,3,.67,2.41Z" transform="translate(0.21)"></path>
      <path class="cls-4" d="M453.44,248.09a103.44,103.44,0,0,0,6.73,10q1.77,2.31,3.64,4.52c1.16,1.36,2.36,2.71,2.65,4.53.25,1.59,2.66.91,2.41-.66a10,10,0,0,0-2.48-4.68c-1.29-1.56-2.61-3.09-3.84-4.69a101.24,101.24,0,0,1-6.95-10.24,1.25,1.25,0,0,0-2.16,1.26Z" transform="translate(0.21)"></path>
      <path class="cls-4" d="M402.22,240.4a50.53,50.53,0,0,0-17.94,15,1.25,1.25,0,0,0,2.16,1.26,47.92,47.92,0,0,1,17.05-14.1c1.44-.72.17-2.88-1.27-2.16Z" transform="translate(0.21)"></path>
      <path class="cls-4" d="M409.27,187.45l-6.53-7.76c-1.9-2.26-3.72-4.88-6.33-6.39a1.25,1.25,0,0,0-1.26,2.16,11.71,11.71,0,0,1,2.94,2.59c1,1.18,2,2.41,3.06,3.62l6.35,7.55a1.26,1.26,0,0,0,1.77,0,1.28,1.28,0,0,0,0-1.77Z" transform="translate(0.21)"></path>
      <path class="cls-4" d="M462.53,191.08a116.27,116.27,0,0,0,23.69-10.82A1.25,1.25,0,0,0,485,178.1a113.38,113.38,0,0,1-23.09,10.57c-1.53.5-.87,2.91.66,2.41Z" transform="translate(0.21)"></path>
      <circle class="cls-11" cx="587.74" cy="319.69" r="1.12"></circle>
      <circle class="cls-11" cx="592.4" cy="319.69" r="1.12"></circle>
      <path class="cls-9" d="M91.11,87.06A32.56,32.56,0,0,1,96,93.26c1.46,2.19,2.83,4.45,4.14,6.74a.63.63,0,0,0,1.08-.63C99.86,97,98.45,94.71,97,92.47a33.59,33.59,0,0,0-5-6.3c-.59-.54-1.47.34-.88.89Z" transform="translate(0.21)"></path>
      <path class="cls-9" d="M100,88.11,89.34,97.83c-.59.54.29,1.42.89.88L100.92,89c.59-.54-.29-1.42-.89-.88Z" transform="translate(0.21)"></path>
      <path class="cls-9" d="M73.15,113.49a32.88,32.88,0,0,1,4.87,6.2q2.19,3.3,4.14,6.74a.63.63,0,0,0,1.08-.63q-2-3.52-4.25-6.9A34,34,0,0,0,74,112.6c-.6-.54-1.48.34-.89.89Z" transform="translate(0.21)"></path>
      <path class="cls-9" d="M82.08,114.54l-10.69,9.72c-.6.54.29,1.42.88.88L83,115.43c.6-.55-.29-1.43-.88-.89Z" transform="translate(0.21)"></path>
      <path class="cls-9" d="M107.08,113.49a32.83,32.83,0,0,1,4.86,6.2q2.19,3.3,4.15,6.74a.63.63,0,0,0,1.08-.63c-1.34-2.35-2.75-4.65-4.25-6.9a34,34,0,0,0-5-6.3c-.59-.54-1.48.34-.88.89Z" transform="translate(0.21)"></path>
      <path class="cls-9" d="M116,114.54l-10.69,9.72c-.59.54.29,1.42.89.88l10.69-9.71c.59-.55-.29-1.43-.89-.89Z" transform="translate(0.21)"></path>
      <path class="cls-9" d="M793.83,198.46a32.43,32.43,0,0,1,4.86,6.2q2.19,3.3,4.15,6.74a.63.63,0,0,0,1.08-.63c-1.34-2.35-2.75-4.65-4.25-6.9a34,34,0,0,0-5-6.3c-.59-.54-1.48.34-.88.89Z" transform="translate(0.21)"></path>
      <path class="cls-9" d="M802.75,199.51l-10.69,9.72c-.59.54.29,1.42.89.88l10.69-9.71c.59-.54-.29-1.43-.89-.89Z" transform="translate(0.21)"></path>
      <path class="cls-9" d="M1136.21,232a33.24,33.24,0,0,1,4.86,6.2q2.19,3.3,4.15,6.74c.39.7,1.47.07,1.08-.63-1.34-2.34-2.75-4.65-4.25-6.9a33.94,33.94,0,0,0-5-6.29c-.59-.55-1.48.33-.88.88Z" transform="translate(0.21)"></path>
      <path class="cls-9" d="M1145.13,233.07l-10.69,9.72c-.6.54.29,1.42.88.88L1146,234c.6-.54-.29-1.43-.88-.89Z" transform="translate(0.21)"></path>
      <path class="cls-9" d="M1146.21,255.34a33.57,33.57,0,0,1,4.86,6.2q2.19,3.3,4.15,6.75c.39.7,1.47.07,1.08-.63-1.34-2.35-2.75-4.66-4.25-6.91a33.94,33.94,0,0,0-5-6.29c-.59-.54-1.48.34-.88.88Z" transform="translate(0.21)"></path>
      <path class="cls-9" d="M1155.13,256.4l-10.69,9.71c-.6.55.29,1.43.88.89l10.69-9.72c.6-.54-.29-1.42-.88-.88Z" transform="translate(0.21)"></path>
      <path class="cls-4" d="M302.58,260.22,304,259c.33.57.75,1.25,1.11,2,.14.26.06.71.24.84,2.07,1.56,4.18,3.07,6.27,4.6.74.55,2,1.15,2,1.72,0,.83-.95,1.65-1.64,2.71.88,1.38-.05,2.29-3.56,2.79-.34,4.92-1.32,9.54-4.81,13.3a2.8,2.8,0,0,0-.56,1.82c.05,1.65.27,3.29.43,5l2.65,1.16-2.66,1.72.32.17c-.34.53-.55,1.37-1,1.55-2.27.85-4.4-.64-5-3.38a17.23,17.23,0,0,0-.52-1.83c-.77-2.29-4.15,1.51-5.08,1.83l1.21,2.87c-4.52-.05-8.55,2.32-12.72-.31-1.43-.91-5.3,0-7.59,1.72L271,297.81c2.07-1.34,4-2.42,5.75-3.79a12.33,12.33,0,0,0,3.45-3.72c3.17-6.2,7.95-10.79,13.4-15,2.26-1.73,3.64-4.62,5.35-7a28.25,28.25,0,0,0,2.55-4.21A22.66,22.66,0,0,0,302.58,260.22Z" transform="translate(0.21)"></path>
      <path class="cls-11" d="M301.6,269.3c.49-.49,1-.95,1.45-1.36" transform="translate(0.21)"></path>
      <path class="cls-11" d="M301.87,269.61c.47-.47.95-.92,1.45-1.36a.5.5,0,0,0,.07-.65.43.43,0,0,0-.61,0c-.49.44-1,.89-1.45,1.36a.51.51,0,0,0-.07.66.42.42,0,0,0,.61,0Z" transform="translate(0.21)"></path>
      <path class="cls-11" d="M305.11,272.93a11.08,11.08,0,0,1,1.53-.78" transform="translate(0.21)"></path>
      <path class="cls-11" d="M305.29,273.32c.35-.21.72-.41,1.09-.59l-.11,0,.44-.19a.54.54,0,0,0,.27-.23.49.49,0,0,0,.08-.35.37.37,0,0,0-.49-.3,11.91,11.91,0,0,0-1.63.83.54.54,0,0,0-.22.64.39.39,0,0,0,.57.14Z" transform="translate(0.21)"></path>
      <path class="cls-11" d="M304.39,277.26c-.41,1.15-.75,2.25-1,3.3" transform="translate(0.21)"></path>
      <path class="cls-11" d="M304,277.16c-.39,1.09-.73,2.19-1,3.31a.41.41,0,0,0,.25.54.49.49,0,0,0,.55-.35c.28-1.11.63-2.21,1-3.3a.41.41,0,0,0-.25-.55.5.5,0,0,0-.55.35Z" transform="translate(0.21)"></path>
      <path class="cls-11" d="M300.74,284.53a16.08,16.08,0,0,1-.6,2.7" transform="translate(0.21)"></path>
      <path class="cls-11" d="M300.31,284.55c0,.2-.05.4-.08.61s0,.22-.07.33v.09c0-.05,0,0,0,0l0,.15c-.1.47-.23.94-.37,1.4a.4.4,0,0,0,.26.54.51.51,0,0,0,.55-.35,17.45,17.45,0,0,0,.62-2.83.37.37,0,0,0-.39-.43.54.54,0,0,0-.47.48Z" transform="translate(0.21)"></path>
      <path class="cls-11" d="M289.78,285.22a.81.81,0,0,0-.36.18,17.85,17.85,0,0,0-1.46,1.15" transform="translate(0.21)"></path>
      <path class="cls-11" d="M289.82,284.76a1.24,1.24,0,0,0-.61.27l-.48.36c-.35.27-.7.55-1,.84a.5.5,0,0,0-.07.65.42.42,0,0,0,.61,0l.45-.38.06,0,.09-.07.22-.18.43-.32.2-.14s.1-.08.12-.07h0c-.07,0-.09,0,0,0a.53.53,0,0,0,.46-.49.38.38,0,0,0-.38-.43Z" transform="translate(0.21)"></path>
      <path class="cls-11" d="M296.47,281.08c.57-1.33,1.06-2.64,1.49-3.91" transform="translate(0.21)"></path>
      <path class="cls-11" d="M296.87,281.18c.55-1.29,1.05-2.59,1.49-3.91.19-.58-.61-.77-.8-.19-.45,1.32-.95,2.62-1.49,3.91a.41.41,0,0,0,.25.55.52.52,0,0,0,.55-.36Z" transform="translate(0.21)"></path>
      <path class="cls-11" d="M294.85,289a16.07,16.07,0,0,0-2.07,1.69" transform="translate(0.21)"></path>
      <path class="cls-11" d="M294.68,288.58a15.17,15.17,0,0,0-2.16,1.77.5.5,0,0,0-.07.65.41.41,0,0,0,.6,0c.34-.32.68-.63,1-.93,0,0,.13-.1.06,0l.13-.11.25-.19.49-.35a.52.52,0,0,0,.22-.63.38.38,0,0,0-.56-.15Z" transform="translate(0.21)"></path>
      <path class="cls-11" d="M284,293a9.5,9.5,0,0,1-.47,2.26" transform="translate(0.21)"></path>
      <path class="cls-11" d="M283.56,293a4.07,4.07,0,0,1-.05.49,2.51,2.51,0,0,1,0,.27s0,.09,0,.13,0,.18,0,.06a12.29,12.29,0,0,1-.32,1.19.4.4,0,0,0,.25.54.5.5,0,0,0,.55-.35,9.51,9.51,0,0,0,.49-2.38.38.38,0,0,0-.38-.44.54.54,0,0,0-.47.49Z" transform="translate(0.21)"></path>
    </g>
  </g>
</svg>
