<svg xmlns="http://www.w3.org/2000/svg" viewBox="0 0 263.76 261.95"><defs><style>.cls-1{fill:#cd9d95;stroke:#cd9c95;stroke-miterlimit:10;stroke-width:4px;}</style></defs><g id="Слой_2" data-name="Слой 2"><g id="Reviews"><path class="cls-1" d="M233.81,50.87a.81.81,0,0,0-.29-1.11L151,2.11a.81.81,0,0,0-1.11.3.86.86,0,0,0-.11.4.81.81,0,0,0,.41.71L232.7,51.17a.81.81,0,0,0,1.11-.3"/><path class="cls-1" d="M252.63,83.43a.81.81,0,0,0-.3-1.11L113.43,2.13a.8.8,0,0,0-1.11.29.77.77,0,0,0-.11.41.81.81,0,0,0,.41.71l138.9,80.19a.82.82,0,0,0,1.11-.3"/><path class="cls-1" d="M259.84,109.29a.8.8,0,0,0-.29-1.11L87.38,8.78a.82.82,0,0,0-1.12.29.87.87,0,0,0-.11.41.83.83,0,0,0,.41.71l172.17,99.4a.81.81,0,0,0,1.11-.3"/><path class="cls-1" d="M261.65,132a.81.81,0,0,0-.3-1.11L66.78,18.58a.81.81,0,0,0-1.11.3.77.77,0,0,0-.11.41.8.8,0,0,0,.4.7L260.54,132.33a.81.81,0,0,0,1.11-.3"/><path class="cls-1" d="M259.84,152.68a.81.81,0,0,0-.3-1.11L49.84,30.49a.83.83,0,0,0-1.12.3.87.87,0,0,0-.11.41.81.81,0,0,0,.41.7L258.73,153a.82.82,0,0,0,1.11-.3"/><path class="cls-1" d="M255.12,171.65a.81.81,0,0,0-.3-1.11L35.79,44.08a.82.82,0,0,0-1.12.3.8.8,0,0,0-.11.4.83.83,0,0,0,.41.71L254,172a.82.82,0,0,0,1.11-.3"/><path class="cls-1" d="M247.84,189.14a.81.81,0,0,0-.3-1.11L24.26,59.12a.81.81,0,0,0-1.11.3.73.73,0,0,0-.11.4.82.82,0,0,0,.4.71L246.73,189.44a.81.81,0,0,0,1.11-.3"/><path class="cls-1" d="M238.16,205.25a.81.81,0,0,0-.29-1.11L15.12,75.54a.81.81,0,0,0-1.11.3.71.71,0,0,0-.11.4.82.82,0,0,0,.4.71l222.75,128.6a.81.81,0,0,0,1.11-.3"/><path class="cls-1" d="M226.08,220a.81.81,0,0,0-.29-1.11L8.4,93.35a.81.81,0,0,0-1.11.3.87.87,0,0,0-.11.41.83.83,0,0,0,.41.71L225,220.27a.81.81,0,0,0,1.11-.3"/><path class="cls-1" d="M211.41,233.2a.83.83,0,0,0-.3-1.12L4.3,112.68a.81.81,0,0,0-1.11.3.77.77,0,0,0-.11.41.8.8,0,0,0,.4.7L210.3,233.5a.81.81,0,0,0,1.11-.3"/><path class="cls-1" d="M193.73,244.69a.83.83,0,0,0-.29-1.12L3.22,133.76a.8.8,0,0,0-1.11.29.87.87,0,0,0-.11.41.83.83,0,0,0,.41.71L192.62,245a.81.81,0,0,0,1.11-.3"/><path class="cls-1" d="M172.11,253.9a.83.83,0,0,0-.3-1.12L6,157.08a.81.81,0,0,0-1.11.3.86.86,0,0,0-.11.4.81.81,0,0,0,.41.71L171,254.2a.83.83,0,0,0,1.12-.3"/><path class="cls-1" d="M144.3,259.54a.81.81,0,0,0-.3-1.11L15,184a.81.81,0,0,0-1.11.29.87.87,0,0,0-.11.41.83.83,0,0,0,.41.71l129,74.47a.81.81,0,0,0,1.11-.3"/><path class="cls-1" d="M100.84,256.15a.83.83,0,0,0-.29-1.12L39.83,220a.82.82,0,0,0-1.12.29.87.87,0,0,0-.11.41.83.83,0,0,0,.41.71l60.72,35.05a.81.81,0,0,0,1.11-.29"/></g></g></svg>