<?xml version="1.0" standalone="no"?>
<!DOCTYPE svg PUBLIC "-//W3C//DTD SVG 20010904//EN"
 "http://www.w3.org/TR/2001/REC-SVG-20010904/DTD/svg10.dtd">
<svg version="1.0" xmlns="http://www.w3.org/2000/svg"
 width="2048.000000pt" height="2048.000000pt" viewBox="0 0 2048.000000 2048.000000"
 preserveAspectRatio="xMidYMid meet">

<g transform="translate(0.000000,2048.000000) scale(0.100000,-0.100000)"
fill="#000000" stroke="none">
<path d="M9930 19362 c0 -4 -118 -13 -262 -20 -145 -7 -297 -17 -338 -22 -415
-51 -505 -64 -650 -90 -208 -37 -274 -50 -360 -69 -47 -10 -110 -24 -140 -31
-30 -6 -78 -18 -106 -26 -28 -8 -57 -14 -65 -14 -8 0 -86 -21 -174 -46 -88
-25 -182 -52 -210 -59 -57 -15 -166 -48 -210 -64 -16 -6 -64 -22 -105 -36 -41
-13 -120 -41 -175 -61 -55 -20 -118 -43 -140 -50 -22 -8 -53 -21 -70 -28 -16
-8 -57 -24 -90 -36 -64 -23 -208 -84 -315 -133 -36 -16 -96 -43 -135 -61 -151
-67 -523 -260 -690 -357 -60 -36 -121 -70 -135 -77 -25 -13 -61 -34 -211 -131
-474 -306 -757 -518 -1144 -857 -336 -294 -548 -509 -939 -949 -79 -90 -332
-411 -420 -535 -37 -52 -76 -106 -86 -120 -11 -14 -63 -90 -116 -170 -167
-250 -213 -323 -301 -475 -38 -66 -79 -140 -92 -165 -13 -25 -28 -50 -32 -56
-21 -26 -235 -448 -284 -559 -7 -16 -28 -61 -45 -100 -51 -110 -99 -222 -136
-320 -19 -49 -39 -99 -44 -110 -55 -126 -202 -559 -255 -750 -19 -71 -44 -159
-54 -195 -18 -60 -41 -154 -76 -305 -8 -33 -21 -91 -31 -130 -16 -68 -61 -313
-89 -485 -31 -190 -71 -526 -86 -732 -7 -87 -16 -158 -20 -158 -12 0 -12
-1107 0 -1112 5 -1 14 -75 20 -163 7 -88 18 -214 26 -280 41 -335 57 -456 70
-515 7 -36 23 -121 35 -190 22 -127 50 -261 75 -360 8 -30 24 -98 36 -150 19
-85 62 -242 104 -385 68 -232 233 -706 289 -830 8 -16 24 -57 37 -90 12 -33
44 -107 71 -163 26 -57 48 -106 48 -108 0 -19 282 -583 309 -619 5 -5 22 -35
38 -65 17 -30 54 -95 83 -145 29 -49 60 -103 70 -120 71 -125 306 -475 463
-690 81 -110 337 -434 388 -490 15 -16 78 -88 140 -160 153 -176 603 -624 769
-766 74 -63 151 -130 170 -148 19 -18 85 -72 145 -119 61 -48 147 -116 191
-152 67 -53 220 -165 408 -297 28 -19 150 -98 296 -191 30 -19 71 -45 90 -57
44 -28 115 -70 155 -90 17 -9 44 -24 60 -35 17 -11 44 -26 60 -35 17 -9 39
-21 50 -28 90 -55 468 -247 607 -308 83 -37 187 -84 253 -114 17 -8 82 -34
145 -59 63 -24 168 -65 233 -90 65 -25 125 -46 133 -46 9 0 28 -7 42 -15 31
-16 265 -94 397 -132 258 -73 336 -94 375 -103 33 -7 184 -43 325 -76 69 -16
250 -50 345 -65 36 -5 81 -14 100 -19 19 -5 73 -13 120 -19 254 -30 415 -54
418 -62 5 -13 1879 -12 1884 1 2 5 62 16 133 25 168 19 269 33 380 52 50 9
113 19 140 23 68 11 241 45 350 68 78 18 134 31 345 81 19 5 73 20 120 34 47
13 123 35 170 47 144 39 513 164 678 229 28 12 76 30 105 42 28 11 66 25 82
30 17 5 44 15 60 23 17 8 53 24 80 36 90 39 109 48 187 84 42 20 80 36 83 36
7 0 254 124 445 222 91 47 177 95 230 128 8 5 71 42 140 81 69 39 146 87 173
105 26 19 49 34 52 34 20 0 466 311 653 455 224 173 254 197 492 404 206 178
641 614 835 836 216 246 408 492 655 837 78 111 343 531 376 598 5 8 36 63 70
121 85 145 260 488 326 639 31 69 71 159 91 200 19 41 47 107 62 145 15 39 42
108 60 155 18 47 45 115 59 152 14 37 60 169 102 295 68 206 96 297 124 403 5
19 22 82 38 140 27 98 41 153 79 320 39 174 55 250 63 300 4 30 22 134 38 230
122 705 154 1539 88 2288 -14 162 -30 321 -36 355 -5 34 -14 103 -20 152 -5
50 -14 110 -19 135 -6 25 -19 101 -31 170 -32 186 -47 256 -112 535 -22 96
-78 307 -102 390 -8 28 -25 84 -36 125 -12 41 -35 113 -51 160 -17 47 -50 146
-75 220 -24 74 -58 167 -74 205 -16 39 -55 135 -86 215 -31 80 -76 186 -99
235 -23 50 -57 123 -75 164 -42 97 -191 395 -247 494 -24 42 -55 99 -70 125
-85 155 -177 305 -348 570 -76 118 -332 471 -449 620 -495 629 -1211 1314
-1831 1752 -66 46 -140 99 -165 116 -25 18 -79 54 -120 80 -41 26 -133 86
-203 132 -71 46 -148 94 -170 106 -23 12 -61 35 -85 50 -24 15 -51 30 -60 34
-9 3 -55 28 -102 55 -186 107 -585 308 -680 342 -19 7 -73 31 -120 53 -86 41
-212 93 -285 119 -22 7 -71 27 -110 42 -237 98 -749 256 -1085 336 -237 56
-340 78 -500 105 -69 12 -145 26 -170 32 -25 5 -112 18 -195 28 -82 11 -186
24 -230 30 -157 21 -373 39 -558 46 -103 4 -190 11 -193 15 -7 11 -614 12
-614 1z m482 -4846 c40 -8 91 -21 113 -30 22 -8 63 -23 92 -34 28 -11 89 -44
135 -74 216 -142 333 -306 414 -583 26 -86 26 -351 1 -413 -9 -23 -17 -52 -17
-65 0 -33 -72 -188 -120 -259 -113 -166 -267 -287 -478 -374 -24 -10 -45 -21
-48 -25 -2 -4 -4 -1522 -4 -3372 0 -1851 -3 -3372 -6 -3381 -5 -14 -37 -16
-265 -16 l-259 0 -2 3386 -3 3386 -85 37 c-322 140 -534 414 -581 751 -17 122
-6 301 24 392 34 103 107 246 161 317 112 145 304 279 476 332 127 39 325 49
452 25z m-2607 -768 c53 1 232 -48 312 -84 238 -109 441 -343 515 -594 25 -87
38 -262 27 -378 -25 -269 -180 -522 -419 -686 -30 -21 -58 -45 -61 -55 -7 -17
0 -59 45 -266 15 -66 33 -151 41 -190 7 -38 30 -146 51 -240 20 -93 42 -201
50 -240 7 -38 23 -113 34 -165 34 -157 60 -281 75 -358 8 -41 17 -77 20 -81 2
-4 8 -34 14 -67 5 -32 19 -102 31 -154 49 -228 62 -289 75 -355 8 -38 26 -124
40 -190 48 -221 74 -346 105 -495 10 -52 28 -138 40 -190 12 -52 25 -115 30
-140 4 -25 20 -99 34 -165 15 -66 33 -151 41 -190 8 -38 23 -113 35 -165 12
-52 25 -117 30 -145 5 -27 15 -77 23 -110 8 -33 22 -96 31 -140 36 -177 97
-464 110 -525 8 -36 24 -110 36 -165 11 -55 27 -129 35 -165 8 -36 23 -112 35
-170 12 -58 28 -132 36 -165 12 -54 52 -244 89 -425 7 -36 27 -130 44 -210 17
-79 31 -154 31 -167 l0 -23 -264 0 -264 0 -10 58 c-6 31 -23 111 -37 177 -14
66 -39 185 -56 265 -17 80 -39 186 -50 235 -11 50 -26 124 -34 165 -8 41 -26
127 -40 190 -15 63 -30 135 -35 160 -4 25 -18 88 -29 140 -12 52 -28 127 -35
165 -8 39 -24 115 -36 170 -12 55 -30 141 -41 190 -10 50 -27 133 -39 185 -11
52 -27 127 -35 165 -8 39 -30 147 -50 240 -20 94 -42 202 -50 240 -15 73 -41
193 -76 355 -11 52 -27 128 -34 168 -8 40 -16 76 -19 80 -3 5 -10 35 -15 68
-10 55 -19 98 -72 344 -11 52 -27 124 -34 160 -13 66 -71 343 -106 505 -11 50
-29 135 -40 190 -26 122 -42 201 -69 325 -11 52 -27 130 -35 173 -8 43 -17 83
-20 88 -3 4 -12 43 -20 86 -8 43 -23 121 -35 173 -11 52 -25 118 -31 145 -10
55 -31 151 -56 263 -9 40 -21 76 -27 81 -6 4 -40 14 -76 21 -171 32 -336 106
-453 203 -80 66 -82 69 -140 141 -94 117 -146 221 -182 366 -8 30 -19 56 -25
58 -13 5 -14 332 -1 332 5 0 15 26 21 58 38 193 185 417 357 546 35 26 77 54
95 62 18 8 51 25 73 38 94 52 305 99 405 89 30 -3 69 -5 85 -5z m5076 -7 c317
-37 607 -260 743 -571 80 -183 93 -459 31 -655 -64 -202 -203 -390 -368 -499
-126 -83 -205 -115 -366 -151 -57 -13 -107 -27 -112 -32 -5 -5 -20 -65 -34
-133 -14 -69 -36 -177 -49 -240 -14 -63 -41 -191 -61 -285 -20 -93 -42 -201
-50 -240 -8 -38 -24 -113 -35 -165 -12 -52 -28 -129 -36 -170 -8 -41 -21 -102
-29 -135 -7 -33 -21 -96 -30 -140 -9 -44 -23 -107 -30 -140 -8 -33 -19 -85
-24 -115 -6 -30 -20 -98 -31 -150 -12 -52 -28 -126 -35 -165 -8 -38 -24 -113
-35 -165 -11 -52 -30 -140 -41 -195 -25 -120 -30 -145 -64 -300 -15 -66 -33
-151 -40 -190 -7 -38 -23 -110 -33 -160 -11 -49 -37 -169 -57 -265 -20 -96
-46 -218 -57 -270 -11 -52 -26 -124 -33 -160 -8 -36 -23 -108 -35 -160 -11
-52 -27 -126 -35 -165 -8 -38 -26 -124 -40 -190 -14 -66 -30 -140 -35 -165
-53 -255 -95 -453 -125 -595 -21 -93 -43 -199 -50 -235 -13 -67 -23 -112 -55
-260 -37 -167 -49 -226 -66 -308 l-17 -82 -266 2 c-230 3 -266 5 -264 18 1 8
11 58 22 110 47 214 81 378 106 505 8 44 18 87 21 95 3 8 12 47 19 85 8 39 24
115 36 170 12 55 27 129 34 165 7 36 18 90 25 120 33 153 74 347 101 480 11
58 27 130 34 160 7 30 23 105 35 165 12 61 28 137 35 170 7 33 23 105 34 160
12 55 28 132 36 170 9 39 22 104 31 145 8 41 31 149 50 240 20 91 40 190 45
220 5 30 14 69 19 85 5 17 16 66 25 110 13 75 29 151 69 335 9 41 21 100 27
130 5 30 16 84 24 120 37 163 57 258 90 425 20 99 43 205 50 235 7 30 23 102
34 160 12 58 28 134 36 170 7 36 23 112 35 170 12 58 30 143 40 190 96 449
119 555 126 600 3 25 13 62 20 84 8 22 12 48 8 58 -3 10 -35 38 -72 62 -181
120 -314 299 -384 518 -33 102 -33 106 -33 288 1 183 1 186 34 280 18 52 48
121 67 153 19 32 34 60 34 63 0 11 112 142 161 190 141 134 318 216 531 248
92 14 109 14 259 -3z"/>
</g>
</svg>
