<?xml version="1.0" encoding="UTF-8"?>
<svg xmlns="http://www.w3.org/2000/svg" viewBox="0 0 186.73 97.33" fill="#252354">
  <path d="M166.83,80.11a18.71,18.71,0,0,0-.21-3c-.12-.77-.52-2.21-.52-2.21a24.31,24.31,0,0,0-3-6.78l-.31-.53a21.42,21.42,0,0,1-2-3.84,7.23,7.23,0,0,1-.27-4.44,3.19,3.19,0,0,1,2.57-2.12,1.1,1.1,0,0,0,.83-.44,1.2,1.2,0,0,0,.08-1.06,4.13,4.13,0,0,0-2.67-2.34,5.48,5.48,0,0,0-6,1.45c-1.69,2-3.93,7.39,1.82,15.23,4.9,6.69.45,18.7-.54,18.7,1.74-6.8,2.24-15.08-5.56-25.05a27.15,27.15,0,0,0-3.53-3.58c-1.77-1.54-3.6-3-5.32-4.61s-7.39-5-8.88-13.2a23.41,23.41,0,0,0-1.52-5.64,9.66,9.66,0,0,0-1.68-2.63,16.71,16.71,0,0,1-.5-1.82c-.62-3.46-1.37-4.09-1.67-4.36-1.79.8-2.75,1.57-4.26,3.91a6,6,0,0,1-1.51.65c-.83.22-1.67.37-2.47.66a5.71,5.71,0,0,0-2.88,2.48,3.71,3.71,0,0,0-.35,1.17,2.26,2.26,0,0,1-.64,1.31c-.45.43-.89.86-1.34,1.27a.75.75,0,0,0-.3.65,4.7,4.7,0,0,0,1.57,3.24,2.44,2.44,0,0,0,1.38.47c.3,0,1.13.16,2.08.38,0,0,4.28.58,2,5h0c-2.1,2.84-6.49,8.73-3.68,15.27A54.59,54.59,0,0,1,120.81,75s.7,5.91.88,9.13c0,0,0,0,0,.08h0c.17,3,.11,5.66-.43,6.48-1.17,1.79-2.29,1.28-3.39,1.56s-1.41.58-1.55,1.2.14.71.14.71-.64,1-.09,1.46a2.67,2.67,0,0,0,1.4.42s0,.79,2.18.58,3.45.35,5.18-4.2A53,53,0,0,1,128.51,85s1.52,5.11,4.21,6.56L135.41,93a11.4,11.4,0,0,0-5.11.62,2.86,2.86,0,0,0-2,2.76s-.27,1,3,1c1.14,0,5.09,0,8.61-.06s6.35.29,6.5-.67c.05-.3.13-.46.25-.53h0c6.33,3.57,17.95-2.6,19.85-13.16a13,13,0,0,0,.26-2.81"></path>
  <path d="M123.54,14.05c0-1.29-2.49-2.76-2.49-2.76-4.41-3-5.59-4.57-5.74-5.31-.78-3.78-7.5-4.53-7.5-4.53a3.4,3.4,0,0,0-2-1.45c-2.65,0-2.46,3.76-2.46,3.76-3.35,2-3.08,7.25-9.49,14.08-1.05,1.12-4.76,6.37-23.36,7.37-3.71.2-8.25.28-11.23.42-44.14,1.58-35.06,14.79-35,22.13,0,3.05,0,6.2,0,8.84,0,0-2.34,10.91-5.73,14.79-2,2.24-1.69,3.92-1.08,6,.44,1.5,1.08,3.78,1.08,3.78L24.44,96s.1.78,1.6.78h3.58s2.45.59-.9-2.43c-2-1.84-7.81-15.87-7.78-20.23a4.31,4.31,0,0,1,1.36-2.4,7.9,7.9,0,0,0,.43,2.86c.45,1.49,1.08,3.78,1.08,3.78l5.86,14.85s.1.78,1.6.78h3.58s2.45.58-.89-2.43c-2.05-1.85-7.71-16.59-7.68-21l4.59-3.73C45.8,53.34,41.55,45.94,42.38,46.7c1.16,1.06,12.85,3.24,23,5.68,12.93,3.11,18.06.85,22-2.2,0,0,.83,12.84,1.54,22.54a13.27,13.27,0,0,1-2.65,5.34c-1.73,2.41-1.69,3.92-1.08,6,.44,1.5,2.93,6.85,2.93,6.85l.56,2.47s.1.77,1.6.77h3.58s2.45.59-.89-2.42c-2-1.85-3.14-4.32-3.11-8.69C90,82.32,92,81.79,94,79.68a17.72,17.72,0,0,0,.31,3.38c.55,3.13,5.24,13.45,5.24,13.45s.11.78,1.6.78h3.58s2.46.58-.89-2.43c-2.05-1.85-7.7-16.59-7.67-21l-.76-17c.45-2.41,7.88-8.39,6-26.31-.82-7.91,3.76-16.64,9.7-15.22,7.64,1.82,10.69.39,10.69.39,1.9-.71,1.75-1.67,1.75-1.67"></path>
</svg>
