<?xml version="1.0" encoding="UTF-8"?>
<svg xmlns="http://www.w3.org/2000/svg" viewBox="0 0 123.43 123.43">
  <defs>
    <style>.cls-1{fill:#ffefbd;stroke:#252554;stroke-miterlimit:10;stroke-width:0.25px;}.cls-2{fill:#252255;}</style>
  </defs>
  <g id="Слой_2" data-name="Слой 2">
    <g id="ALL_ARTICLES" data-name="ALL ARTICLES">
      <g id="View_all" data-name="View all">
        <circle class="cls-1" cx="61.72" cy="61.72" r="61.59"></circle>
        <path class="cls-2" d="M80.1,48.81c-.95,2.16-4.77,10.29-6.1,12a35,35,0,0,0,3.6-12.36,3.12,3.12,0,0,0-2-3.47c-.82-.33-1-.12-.82-.33,3-3.28,7.22-.24,5.29,4.19m3.44-3.37c-.83-4.79-4.4-7.58-8.14-6.37-2.3.74-8.88,7.21-27.21,0a5.84,5.84,0,0,0-7.87,4.12,19.25,19.25,0,0,0-.57,6.19c.24,3.65,2.16,6.75,3.94,9.85a19.19,19.19,0,0,1,3,7.81c.29,3.08.51,6.18.9,9.25a49.47,49.47,0,0,0,1.18,6,2.91,2.91,0,0,0,2.49,2.45,3.14,3.14,0,0,0,3.06-2,18.42,18.42,0,0,0,1.32-3.15c.63-2.1,1.08-4.25,1.73-6.33a23.65,23.65,0,0,1,1.77-4.5c1.33-2.39,3.62-2.39,5,0a14.88,14.88,0,0,1,1.42,3.42c.83,2.73,1.49,5.51,2.35,8.23a10.33,10.33,0,0,0,1.61,3.15c1.43,1.85,3.55,1.62,4.62-.44A7.86,7.86,0,0,0,75,80.57c.45-3.35.88-6.71,1.15-10.08.31-3.94,1-7.72,3.27-11.1a34.87,34.87,0,0,0,2.05-3.75,18.94,18.94,0,0,0,2.22-8.36c0-.42-.07-1.13-.19-1.84"></path>
      </g>
    </g>
  </g>
</svg>
