<?xml version="1.0" encoding="UTF-8"?>
<svg xmlns="http://www.w3.org/2000/svg" viewBox="0 0 123.18 123.18">
  <defs>
    <style>.cls-1{fill:#be7d6c;}.cls-2{fill:#fcd8c0;}</style>
  </defs>
  <g id="Слой_2" data-name="Слой 2">
    <g id="ALL_ARTICLES" data-name="ALL ARTICLES">
      <g id="View_all" data-name="View all">
        <circle class="cls-1" cx="61.59" cy="61.59" r="61.59"></circle>
        <path class="cls-2" d="M90.29,39.31c0-5.23-4.52-7.18-7.71-7.63v-1.3s0,0,0,0H78.85a.06.06,0,0,0-.06.06v7.13a.06.06,0,0,0,.06.06h3.71s0,0,0,0v-1c1.36.27,3.29,1,3.29,2.75,0,5.7-4.58,28.46-11.83,28.46S62.2,45,62.2,39.31c0-1.71,1.76-2.42,3.1-2.72v1s0,0,0,0H69a.06.06,0,0,0,.06-.06V30.42a.06.06,0,0,0-.06-.06H65.33s0,0,0,0v1.33c-3.17.49-7.51,2.47-7.51,7.6,0,5.41,4.06,30.94,14.78,33.11.44,6.11-.5,10.93-2.7,13.6a7.31,7.31,0,0,1-6,2.6,8.37,8.37,0,0,1-7-3.67c-2.43-3.4-3.12-8.75-1.85-14.3,2.32-10.1,2.13-16.32-.63-20.17-1.68-2.33-4.27-3.67-7.71-4a7.13,7.13,0,0,0-6.81-6.09c-3.82,0-6.94,3.39-6.94,7.56s3.12,7.56,6.94,7.56a7,7,0,0,0,6.47-4.84c2.35.21,4,1,5,2.39,1.93,2.69,1.91,8-.06,16.56-1.59,6.9-.66,13.43,2.55,17.91a12.14,12.14,0,0,0,10.07,5.28,11,11,0,0,0,8.88-4c3.64-4.42,4.08-11.26,3.7-16.66C86.46,68.76,90.29,44.56,90.29,39.31Z"></path>
      </g>
    </g>
  </g>
</svg>
