<?xml version="1.0" encoding="UTF-8"?>
<svg xmlns="http://www.w3.org/2000/svg" viewBox="0 0 123.43 123.43">
  <defs>
    <style>.cls-1{fill:#ffefbd;}.cls-2{fill:#252255;}</style>
  </defs>
  <g id="Слой_2" data-name="Слой 2">
    <g id="ALL_ARTICLES" data-name="ALL ARTICLES">
      <g id="View_all" data-name="View all">
        <circle class="cls-1" cx="61.72" cy="61.72" r="61.59"></circle>
        <path class="cls-2" d="M86.75,41.08H36.67A5.4,5.4,0,0,0,31,46.77q0,15,0,29.94a6.58,6.58,0,0,0,.13,1.4,5.38,5.38,0,0,0,5.4,4.24H86.73a7.26,7.26,0,0,0,1.68-.17,5.37,5.37,0,0,0,4.06-5.42q0-15,0-29.94A5.41,5.41,0,0,0,86.75,41.08Zm1,9.71a.9.9,0,0,1,.44,0c.15.1.35.3.34.44a.76.76,0,0,1-.39.46,1.24,1.24,0,0,1-.55,0H62.16a1.24,1.24,0,0,1-.55,0,.67.67,0,0,1-.34-.44.72.72,0,0,1,.33-.45,1.16,1.16,0,0,1,.5,0ZM56.94,74.55H35.85V50.68H56.94ZM61.86,58.4H87.74c.15,0,.33,0,.44,0s.34.28.34.44-.19.34-.34.44-.29,0-.44,0l-9.86,0c-1,0-2,0-3,0-2.86,0-5.73,0-8.6,0l-4.44,0c-.32,0-.63-.06-.62-.48S61.54,58.4,61.86,58.4ZM61.6,66a1.24,1.24,0,0,1,.55,0H87.62a1.18,1.18,0,0,1,.5,0c.17.1.39.3.39.45s-.21.36-.38.46-.32,0-.49,0H62.11a1.09,1.09,0,0,1-.55-.07.72.72,0,0,1-.29-.47A.55.55,0,0,1,61.6,66Zm26.45,8.5c-.11.06-.29,0-.44,0H62.19a1.18,1.18,0,0,1-.5,0c-.17-.09-.42-.29-.41-.42a.91.91,0,0,1,.4-.5c.1-.07.29,0,.44,0H87.71c.11,0,.26,0,.33,0a4.62,4.62,0,0,1,.5.49A3,3,0,0,1,88.05,74.52Z"></path>
      </g>
    </g>
  </g>
</svg>
