<?xml version="1.0" encoding="UTF-8"?>
<svg xmlns="http://www.w3.org/2000/svg" viewBox="0 0 123.18 123.18">
  <defs>
    <style>.cls-1{fill:#fac79f;opacity:0.91;}.cls-2{fill:#252255;}</style>
  </defs>
  <g id="Слой_2" data-name="Слой 2">
    <g id="ALL_ARTICLES" data-name="ALL ARTICLES">
      <g id="View_all" data-name="View all">
        <circle class="cls-1" cx="61.59" cy="61.59" r="61.59"></circle>
        <path class="cls-2" d="M88.42,31.33c1,5.39-1,9.64-3.2,13.8-.85,1.63-1.81,3.2-2.82,4.74-2.51,3.84-2.57,3.9-6.83,1.87-1.84-.88-3.16-.85-4.51.84-1.78,2.23-3.77,4.27-5.54,6.25L78,71.07c.12-.26.44-1,.82-1.81A7.13,7.13,0,0,1,89,66.18a7.24,7.24,0,0,1,2.23,10.18,7.1,7.1,0,0,1-10.49,1.39C75.8,73.17,65.08,61.68,64.24,60.46L61.09,63.8c4.62,4.52,9,8.87,13.48,13.22,1,1,2,2,3,3.06a7.46,7.46,0,0,1,1.07,8.77,7.28,7.28,0,0,1-8,3.16,6.93,6.93,0,0,1-5.2-6.12A7,7,0,0,1,70,78.38c.54-.23,1.1-.39,1.52-.53L58.87,65.35C58.64,65.78,46.64,79.88,41.1,86c-3.08,3.42-3.1,3.41-7,0L57.66,63c-7-7-13.53-13.37-19.93-19.92a37.74,37.74,0,0,1-5-6.52c-.92-1.49-1.21-3.36-2-5.65A16.88,16.88,0,0,1,42,36.2c6.26,6.16,12.43,12.41,18.65,18.61.7.71,1.45,1.37,2.41,2.26ZM85.33,75.86a3.55,3.55,0,1,0-3.58-3.46A3.68,3.68,0,0,0,85.33,75.86ZM75.92,85a3.61,3.61,0,0,0-3.45-3.33,3.56,3.56,0,0,0-3.36,3.41A3.41,3.41,0,1,0,75.92,85ZM49.55,47.26l-1.66,1.87L59.32,60.82l2-1.67Z"></path>
      </g>
    </g>
  </g>
</svg>
