<?xml version="1.0" encoding="UTF-8"?>
<svg xmlns="http://www.w3.org/2000/svg" viewBox="0 0 123.18 123.18">
  <defs>
    <style>.cls-1{fill:#a71d17;}.cls-2{fill:#fcd8c0;}</style>
  </defs>
  <g id="Слой_2" data-name="Слой 2">
    <g id="ALL_ARTICLES" data-name="ALL ARTICLES">
      <g id="View_all" data-name="View all">
        <circle class="cls-1" cx="61.59" cy="61.59" r="61.59"></circle>
        <path class="cls-2" d="M58.42,77.15a15.74,15.74,0,0,1-7.11.68,36.07,36.07,0,0,1-4-.6,1.25,1.25,0,0,1-.86-.69,25.53,25.53,0,0,1-.21-10.41,4.89,4.89,0,0,1,9.34-1,17.58,17.58,0,0,1,.57,2.48,14.55,14.55,0,0,1,1.84.26,5,5,0,0,1,3.59,4.56,4.89,4.89,0,0,1-3.16,4.73M88.35,52.78A3.66,3.66,0,0,0,83,53c-4.32,4.28-8.6,8.58-12.9,12.87-.35.35-.73.65-1.06.94-1.34-1.57-.85-2.6.4-3.81,4.88-4.74,9.66-9.59,14.46-14.41,1.82-1.83,2-4,.47-5.57s-3.81-1.53-5.67.31q-4.08,4-8.11,8.11c-2.27,2.3-4.5,4.64-6.85,7.06-2,1.82-3.17-.28-1.84-1.81l1.19-1.24c4.22-4.22,8.46-8.42,12.66-12.67,2.08-2.11,1.59-5.11-1-6.23-1.5-.65-3.07-.25-4.54,1.21-4.52,4.52-9.1,9-13.5,13.59-1.32,1.38-2.43,1.54-4,.51.37-.38.71-.75,1.07-1.11,3.47-3.48,7-6.95,10.42-10.45a3.38,3.38,0,0,0,.14-4.8,3.3,3.3,0,0,0-4.9.08C52.57,42.41,45.61,49.21,38.8,56.17c-5.31,5.43-6.48,12-3.41,18.63A25.92,25.92,0,0,0,47.12,86.86a16.9,16.9,0,0,0,5,1.62C57.25,89.36,62,88,66.65,86a40.34,40.34,0,0,1,11.7-3.42c1.93-.19,3.87-.25,5.8-.33,1.22-.06,1.6-.72,1.56-1.86a6.28,6.28,0,0,0-5.9-5.71,44.2,44.2,0,0,0-6.65.73l-2.41.28L87.22,59.25c.37-.37.75-.73,1.1-1.11a3.75,3.75,0,0,0,0-5.36"></path>
      </g>
    </g>
  </g>
</svg>
