<?xml version="1.0" encoding="UTF-8"?>
<svg xmlns="http://www.w3.org/2000/svg" viewBox="0 0 123.2 123.2">
  <defs>
    <style>.cls-1{fill:#fac79f;}.cls-2{fill:#252255;}</style>
  </defs>
  <g id="Слой_2" data-name="Слой 2">
    <g id="ALL_ARTICLES" data-name="ALL ARTICLES">
      <g id="View_all" data-name="View all">
        <circle class="cls-1" cx="61.6" cy="61.6" r="61.59"></circle>
        <path class="cls-2" d="M78,89.71a1.44,1.44,0,0,0,1.18.2,1.52,1.52,0,0,0,.45-1.11c0-.29-.26-.6-.42-.9L73.26,77c-.77-1.41-1.54-2.81-2.35-4.27a1.21,1.21,0,0,0,.51-1.94c-.36-.62-.65-1.29-1-2,.32-.14.5-.2.67-.29,2.54-1.38,3.1-3.22,1.73-5.79-1.57-2.93-3.14-5.87-4.73-8.79q-4.8-8.79-9.64-17.55C58,35.63,57.51,35,57,34.15c1.37-.72,2.44-1.26,3.48-1.84s1.36-1.39.89-2.21a1.56,1.56,0,0,0-2.26-.42L39.43,40.4c-1,.53-1.29,1.31-.9,2.1a1.52,1.52,0,0,0,2.31.48c1.07-.61,2.08-1.3,3.35-2.1,1.86,3.47,14,26.2,16.07,29.82a3.32,3.32,0,0,0,4.12,1.38,17.91,17.91,0,0,0,1.71-.79c1.3.75.74,3.34,3.17,2.52,2.72,5,5.42,10,8.13,15C77.57,89.1,77.7,89.53,78,89.71ZM65.85,66.91c-4.54-9.43-10.47-18.1-15.4-27.33-.37-.71.7-1.34,1.08-.63,4.92,9.23,10.85,17.9,15.4,27.33C67.27,67,66.2,67.64,65.85,66.91Z"></path>
      </g>
    </g>
  </g>
</svg>
